<?xml version="1.0" encoding="UTF-8" standalone="no"?>
<!-- Created with Inkscape (http://www.inkscape.org/) -->

<svg
   xmlns:dc="http://purl.org/dc/elements/1.1/"
   xmlns:cc="http://creativecommons.org/ns#"
   xmlns:rdf="http://www.w3.org/1999/02/22-rdf-syntax-ns#"
   xmlns:svg="http://www.w3.org/2000/svg"
   xmlns="http://www.w3.org/2000/svg"
   xmlns:sodipodi="http://sodipodi.sourceforge.net/DTD/sodipodi-0.dtd"
   xmlns:inkscape="http://www.inkscape.org/namespaces/inkscape"
   width="378.55014"
   height="215.49246"
   id="svg3806"
   version="1.1"
   inkscape:version="0.48.4 r9939"
   sodipodi:docname="western-national-logo.svg"
   inkscape:export-filename="C:\Users\eglee\Desktop\western-national-logo.png"
   inkscape:export-xdpi="24.200001"
   inkscape:export-ydpi="24.200001">
  <defs
     id="defs3808" />
  <sodipodi:namedview
     id="base"
     pagecolor="#ffffff"
     bordercolor="#666666"
     borderopacity="1.0"
     inkscape:pageopacity="0.0"
     inkscape:pageshadow="2"
     inkscape:zoom="1"
     inkscape:cx="185.62796"
     inkscape:cy="-92.117377"
     inkscape:document-units="px"
     inkscape:current-layer="layer1"
     showgrid="false"
     inkscape:window-width="1280"
     inkscape:window-height="962"
     inkscape:window-x="-8"
     inkscape:window-y="-8"
     inkscape:window-maximized="1"
     fit-margin-top="0"
     fit-margin-left="0"
     fit-margin-right="0"
     fit-margin-bottom="0" />
  <metadata
     id="metadata3811">
    <rdf:RDF>
      <cc:Work
         rdf:about="">
        <dc:format>image/svg+xml</dc:format>
        <dc:type
           rdf:resource="http://purl.org/dc/dcmitype/StillImage" />
        <dc:title></dc:title>
      </cc:Work>
    </rdf:RDF>
  </metadata>
  <g
     inkscape:label="Layer 1"
     inkscape:groupmode="layer"
     id="layer1"
     style="display:inline"
     transform="translate(-80.881482,-254.37505)">
    <g
       id="g4110"
       transform="matrix(0.91091423,0,0,0.91091423,-29.82039,7.6733837)">
      <g
         id="g4209"
         transform="translate(-20.360254,-2.1814558)">
        <g
           id="g3295"
           transform="matrix(4.1927001,0,0,-4.1927001,206.48802,484.56579)">
          <path
             inkscape:connector-curvature="0"
             d="m 0,0 -0.29,-1.222 -0.228,0 c -0.001,0.073 -0.011,0.167 -0.03,0.28 -0.018,0.113 -0.045,0.214 -0.079,0.305 -0.038,0.096 -0.087,0.179 -0.147,0.248 -0.061,0.07 -0.132,0.11 -0.215,0.122 -0.066,0.009 -0.15,0.014 -0.251,0.02 -0.102,0.003 -0.196,0.006 -0.284,0.006 l -0.208,0 -0.868,-3.624 c -0.004,-0.016 -0.006,-0.035 -0.009,-0.054 -0.003,-0.02 -0.003,-0.04 -0.003,-0.059 0,-0.05 0.008,-0.093 0.029,-0.126 0.02,-0.032 0.057,-0.061 0.112,-0.085 0.044,-0.019 0.123,-0.039 0.238,-0.063 0.115,-0.024 0.209,-0.038 0.281,-0.04 l -0.052,-0.21 -2.205,0 0.053,0.21 c 0.066,0.005 0.16,0.014 0.285,0.026 0.125,0.012 0.216,0.028 0.274,0.046 0.087,0.033 0.152,0.075 0.196,0.132 0.046,0.054 0.074,0.119 0.092,0.195 l 0.875,3.652 -0.172,0 c -0.069,0 -0.151,-0.003 -0.249,-0.005 -0.1,-0.002 -0.201,-0.009 -0.304,-0.021 -0.072,-0.008 -0.157,-0.049 -0.255,-0.123 -0.097,-0.076 -0.192,-0.163 -0.289,-0.263 -0.093,-0.098 -0.176,-0.198 -0.251,-0.3 -0.075,-0.101 -0.134,-0.192 -0.175,-0.269 l -0.227,0 L -4.063,0 0,0 z"
             style="fill:#0d1b29;fill-opacity:1;fill-rule:nonzero;stroke:none"
             id="path3297" />
        </g>
        <g
           id="g3299"
           transform="matrix(4.1927001,0,0,-4.1927001,218.96593,501.77263)">
          <path
             inkscape:connector-curvature="0"
             d="m 0,0 -0.051,-0.218 c -0.199,-0.081 -0.353,-0.141 -0.464,-0.179 -0.111,-0.038 -0.222,-0.056 -0.336,-0.056 -0.177,0 -0.311,0.046 -0.399,0.136 -0.088,0.09 -0.133,0.205 -0.133,0.338 0,0.048 0.006,0.101 0.014,0.159 0.009,0.059 0.022,0.127 0.042,0.206 l 0.322,1.229 c 0.026,0.094 0.044,0.18 0.059,0.257 0.014,0.076 0.019,0.139 0.019,0.183 0,0.148 -0.032,0.265 -0.101,0.351 C -1.096,2.491 -1.2,2.534 -1.335,2.534 -1.471,2.534 -1.62,2.489 -1.779,2.398 -1.938,2.307 -2.09,2.183 -2.233,2.02 l -0.559,-2.418 -0.618,0 0.979,4.235 c 0.012,0.051 0.019,0.093 0.028,0.127 0.007,0.036 0.011,0.073 0.011,0.113 0,0.079 -0.013,0.139 -0.039,0.182 -0.027,0.042 -0.064,0.074 -0.112,0.097 -0.044,0.021 -0.099,0.033 -0.172,0.039 -0.073,0.007 -0.146,0.015 -0.219,0.023 l 0.047,0.204 1.227,0.069 0.035,-0.047 -0.528,-2.272 0.014,0 c 0.224,0.182 0.425,0.321 0.601,0.414 0.177,0.092 0.376,0.138 0.6,0.138 0.207,0 0.37,-0.06 0.488,-0.18 0.117,-0.123 0.176,-0.281 0.176,-0.479 0,-0.038 -0.007,-0.109 -0.018,-0.21 C -0.304,1.956 -0.323,1.855 -0.35,1.757 L -0.625,0.704 C -0.643,0.635 -0.662,0.554 -0.681,0.462 -0.701,0.374 -0.712,0.302 -0.712,0.25 c 0,-0.123 0.029,-0.209 0.084,-0.253 0.054,-0.045 0.143,-0.067 0.269,-0.067 0.042,0 0.102,0.007 0.179,0.022 C -0.103,-0.032 -0.042,-0.016 0,0"
             style="fill:#0d1b29;fill-opacity:1;fill-rule:nonzero;stroke:none"
             id="path3301" />
        </g>
        <g
           id="g3303"
           transform="matrix(4.1927001,0,0,-4.1927001,231.5826,490.3165)">
          <path
             inkscape:connector-curvature="0"
             d="m 0,0 c -0.152,0.128 -0.387,0.192 -0.703,0.192 -0.285,0 -0.547,-0.063 -0.782,-0.188 -0.237,-0.126 -0.436,-0.291 -0.598,-0.495 -0.169,-0.209 -0.294,-0.44 -0.38,-0.693 -0.088,-0.252 -0.132,-0.516 -0.132,-0.795 0,-0.399 0.103,-0.709 0.309,-0.928 0.207,-0.216 0.505,-0.325 0.893,-0.325 0.284,0 0.559,0.08 0.822,0.238 0.263,0.16 0.482,0.374 0.659,0.64 L -0.1,-2.216 c -0.162,-0.215 -0.329,-0.377 -0.496,-0.486 -0.168,-0.109 -0.362,-0.164 -0.583,-0.164 -0.249,0 -0.437,0.093 -0.565,0.276 -0.129,0.184 -0.193,0.45 -0.193,0.796 0.251,0.03 0.484,0.07 0.691,0.116 0.209,0.046 0.413,0.107 0.619,0.182 0.279,0.098 0.491,0.232 0.637,0.4 0.147,0.168 0.219,0.367 0.219,0.602 C 0.229,-0.294 0.152,-0.13 0,0 m -0.507,-0.941 c -0.089,-0.149 -0.224,-0.272 -0.405,-0.364 -0.13,-0.067 -0.291,-0.12 -0.484,-0.161 -0.194,-0.04 -0.367,-0.072 -0.521,-0.093 0.059,0.433 0.201,0.793 0.423,1.082 0.224,0.29 0.468,0.435 0.732,0.435 0.046,0 0.091,-0.003 0.135,-0.01 0.044,-0.007 0.085,-0.023 0.125,-0.05 0.037,-0.023 0.068,-0.061 0.093,-0.11 0.024,-0.05 0.034,-0.117 0.034,-0.203 0,-0.203 -0.043,-0.379 -0.132,-0.526"
             style="fill:#0d1b29;fill-opacity:1;fill-rule:nonzero;stroke:none"
             id="path3305" />
        </g>
        <g
           id="g3307"
           transform="matrix(4.1927001,0,0,-4.1927001,253.05801,491.74745)">
          <path
             inkscape:connector-curvature="0"
             d="m 0,0 c 0,-0.063 -0.01,-0.129 -0.026,-0.202 -0.018,-0.075 -0.042,-0.135 -0.076,-0.184 -0.039,-0.058 -0.082,-0.104 -0.128,-0.135 -0.046,-0.032 -0.114,-0.048 -0.201,-0.048 -0.118,0 -0.205,0.03 -0.264,0.09 -0.058,0.059 -0.087,0.124 -0.087,0.196 0,0.069 0.016,0.144 0.048,0.228 0.034,0.085 0.067,0.169 0.103,0.252 -0.025,0 -0.071,-0.008 -0.131,-0.021 C -0.821,0.162 -0.895,0.133 -0.98,0.093 -1.065,0.049 -1.162,-0.014 -1.271,-0.098 -1.379,-0.181 -1.494,-0.294 -1.617,-0.433 l -0.528,-2.357 -0.616,0 0.476,2.13 c 0.012,0.053 0.027,0.132 0.048,0.237 0.02,0.106 0.032,0.182 0.032,0.234 0,0.121 -0.021,0.204 -0.063,0.246 C -2.31,0.099 -2.393,0.12 -2.516,0.12 -2.564,0.12 -2.624,0.109 -2.699,0.093 -2.771,0.074 -2.829,0.062 -2.87,0.047 l 0.048,0.215 c 0.172,0.079 0.322,0.137 0.454,0.176 0.131,0.036 0.244,0.057 0.338,0.057 0.174,0 0.299,-0.048 0.372,-0.144 0.077,-0.095 0.114,-0.238 0.114,-0.428 l 0.019,0 c 0.26,0.228 0.458,0.385 0.591,0.475 0.136,0.091 0.276,0.135 0.422,0.135 0.07,0 0.139,-0.008 0.204,-0.025 C -0.243,0.49 -0.188,0.46 -0.141,0.419 -0.093,0.374 -0.058,0.32 -0.036,0.26 -0.012,0.2 0,0.113 0,0"
             style="fill:#0d1b29;fill-opacity:1;fill-rule:nonzero;stroke:none"
             id="path3309" />
        </g>
        <g
           id="g3311"
           transform="matrix(4.1927001,0,0,-4.1927001,263.96574,490.3165)">
          <path
             inkscape:connector-curvature="0"
             d="m 0,0 c -0.151,0.128 -0.387,0.192 -0.702,0.192 -0.286,0 -0.546,-0.063 -0.783,-0.188 -0.235,-0.126 -0.434,-0.291 -0.596,-0.495 -0.169,-0.209 -0.295,-0.44 -0.382,-0.693 -0.086,-0.252 -0.13,-0.516 -0.13,-0.795 0,-0.399 0.103,-0.709 0.309,-0.928 0.206,-0.216 0.502,-0.325 0.891,-0.325 0.284,0 0.557,0.08 0.823,0.238 0.262,0.16 0.484,0.374 0.659,0.64 l -0.188,0.138 c -0.163,-0.215 -0.329,-0.377 -0.497,-0.486 -0.168,-0.109 -0.362,-0.164 -0.582,-0.164 -0.248,0 -0.436,0.093 -0.565,0.276 -0.128,0.184 -0.194,0.45 -0.194,0.796 0.253,0.03 0.484,0.07 0.691,0.116 0.209,0.046 0.416,0.107 0.62,0.182 0.279,0.098 0.492,0.232 0.638,0.4 0.145,0.168 0.217,0.367 0.217,0.602 C 0.229,-0.294 0.154,-0.13 0,0 m -0.506,-0.941 c -0.089,-0.149 -0.225,-0.272 -0.408,-0.364 -0.127,-0.067 -0.287,-0.12 -0.481,-0.161 -0.194,-0.04 -0.368,-0.072 -0.522,-0.093 0.061,0.433 0.201,0.793 0.424,1.082 0.224,0.29 0.468,0.435 0.731,0.435 0.046,0 0.091,-0.003 0.136,-0.01 0.044,-0.007 0.087,-0.023 0.125,-0.05 0.038,-0.023 0.067,-0.061 0.092,-0.11 0.024,-0.05 0.038,-0.117 0.038,-0.203 0,-0.203 -0.046,-0.379 -0.135,-0.526"
             style="fill:#0d1b29;fill-opacity:1;fill-rule:nonzero;stroke:none"
             id="path3313" />
        </g>
        <g
           id="g3315"
           transform="matrix(4.1927001,0,0,-4.1927001,273.79846,482.30341)">
          <path
             inkscape:connector-curvature="0"
             d="M 0,0 -0.918,-3.952 C -0.937,-4.035 -0.957,-4.118 -0.974,-4.2 -0.991,-4.284 -1,-4.353 -1,-4.404 c 0,-0.125 0.027,-0.21 0.083,-0.257 0.055,-0.046 0.143,-0.068 0.269,-0.068 0.043,0 0.106,0.004 0.192,0.016 0.086,0.01 0.151,0.023 0.195,0.038 L -0.312,-4.89 c -0.195,-0.08 -0.348,-0.138 -0.454,-0.172 -0.106,-0.034 -0.227,-0.051 -0.359,-0.051 -0.177,0 -0.309,0.047 -0.401,0.136 -0.09,0.093 -0.135,0.205 -0.135,0.338 0,0.051 0.005,0.104 0.015,0.158 0.008,0.055 0.023,0.124 0.04,0.208 l 0.801,3.465 c 0.016,0.068 0.027,0.116 0.031,0.142 0.006,0.025 0.01,0.059 0.01,0.099 0,0.078 -0.013,0.139 -0.041,0.182 -0.026,0.043 -0.064,0.074 -0.112,0.097 -0.046,0.021 -0.106,0.034 -0.177,0.039 -0.072,0.007 -0.142,0.015 -0.216,0.023 l 0.047,0.204 1.229,0.07 L 0,0 z"
             style="fill:#0d1b29;fill-opacity:1;fill-rule:nonzero;stroke:none"
             id="path3317" />
        </g>
        <g
           id="g3319"
           transform="matrix(4.1927001,0,0,-4.1927001,283.77249,503.09122)">
          <path
             inkscape:connector-curvature="0"
             d="m 0,0 c 0.092,-0.093 0.216,-0.138 0.374,-0.138 0.135,0 0.253,0.018 0.35,0.054 0.094,0.038 0.242,0.097 0.437,0.179 L 1.21,0.314 C 1.169,0.297 1.112,0.282 1.036,0.266 0.96,0.251 0.903,0.245 0.861,0.245 0.739,0.245 0.653,0.265 0.6,0.309 0.546,0.354 0.521,0.438 0.521,0.562 c 0,0.047 0.01,0.119 0.029,0.215 0.018,0.099 0.035,0.181 0.053,0.249 L 1.093,3.144 1.054,3.192 0.448,3.039 C 0.367,3.089 0.255,3.136 0.115,3.178 -0.027,3.219 -0.175,3.239 -0.33,3.239 -0.577,3.239 -0.814,3.18 -1.046,3.06 -1.279,2.94 -1.479,2.781 -1.647,2.585 -1.824,2.38 -1.963,2.149 -2.063,1.892 -2.165,1.633 -2.214,1.369 -2.214,1.096 c 0,-0.397 0.089,-0.709 0.271,-0.938 0.181,-0.229 0.432,-0.344 0.75,-0.344 0.12,0 0.229,0.021 0.33,0.063 0.102,0.04 0.194,0.089 0.281,0.146 0.091,0.055 0.168,0.115 0.236,0.175 0.066,0.063 0.124,0.114 0.172,0.155 l 0.024,0 C -0.142,0.21 -0.091,0.092 0,0 M -0.1,0.651 C -0.272,0.477 -0.424,0.354 -0.559,0.285 -0.695,0.217 -0.824,0.181 -0.947,0.181 c -0.122,0 -0.223,0.023 -0.301,0.07 -0.08,0.046 -0.14,0.112 -0.182,0.195 -0.045,0.086 -0.074,0.18 -0.089,0.285 -0.015,0.104 -0.023,0.222 -0.023,0.356 0,0.245 0.035,0.487 0.108,0.724 0.073,0.238 0.167,0.44 0.281,0.609 0.121,0.178 0.257,0.32 0.408,0.427 0.151,0.105 0.308,0.157 0.469,0.157 0.116,0 0.213,-0.016 0.29,-0.049 C 0.09,2.921 0.151,2.879 0.196,2.823 0.244,2.766 0.275,2.704 0.29,2.638 0.305,2.571 0.313,2.502 0.313,2.431 L -0.1,0.651 z"
             style="fill:#0d1b29;fill-opacity:1;fill-rule:nonzero;stroke:none"
             id="path3321" />
        </g>
        <g
           id="g3323"
           transform="matrix(4.1927001,0,0,-4.1927001,293.86141,503.73985)">
          <path
             inkscape:connector-curvature="0"
             d="m 0,0 c -0.207,0 -0.36,0.042 -0.457,0.127 -0.096,0.084 -0.145,0.206 -0.145,0.363 0,0.052 0.003,0.099 0.011,0.144 0.006,0.044 0.015,0.097 0.026,0.154 l 0.514,2.199 -0.591,0 0.07,0.298 0.602,0 0.228,0.961 0.595,0 -0.222,-0.961 0.911,0 -0.069,-0.298 -0.902,0 L 0.146,1.173 C 0.127,1.09 0.109,1.01 0.096,0.932 0.083,0.854 0.077,0.788 0.077,0.732 c 0,-0.121 0.029,-0.209 0.09,-0.265 0.06,-0.056 0.168,-0.083 0.325,-0.083 0.057,0 0.136,0.007 0.24,0.022 0.101,0.014 0.183,0.033 0.239,0.056 L 0.915,0.22 C 0.762,0.159 0.617,0.108 0.482,0.065 0.345,0.022 0.185,0 0,0"
             style="fill:#0d1b29;fill-opacity:1;fill-rule:nonzero;stroke:none"
             id="path3325" />
        </g>
        <g
           id="g3327"
           transform="matrix(4.1927001,0,0,-4.1927001,308.08512,484.29954)">
          <path
             inkscape:connector-curvature="0"
             d="m 0,0 c 0,-0.125 -0.041,-0.234 -0.124,-0.328 -0.081,-0.093 -0.183,-0.14 -0.305,-0.14 -0.113,0 -0.209,0.044 -0.292,0.134 -0.082,0.087 -0.123,0.191 -0.123,0.305 0,0.12 0.041,0.227 0.123,0.317 0.083,0.089 0.179,0.135 0.292,0.135 0.126,0 0.23,-0.042 0.311,-0.128 C -0.04,0.212 0,0.113 0,0 m -0.235,-4.199 -0.049,-0.215 c -0.201,-0.084 -0.362,-0.142 -0.484,-0.173 -0.119,-0.033 -0.223,-0.05 -0.307,-0.05 -0.176,0 -0.309,0.047 -0.397,0.137 -0.087,0.091 -0.13,0.203 -0.13,0.337 0,0.051 0.003,0.103 0.013,0.157 0.009,0.054 0.023,0.124 0.043,0.208 l 0.345,1.396 c 0.019,0.078 0.035,0.159 0.052,0.247 0.015,0.087 0.025,0.162 0.025,0.223 0,0.122 -0.021,0.205 -0.062,0.245 -0.041,0.041 -0.122,0.062 -0.247,0.062 -0.048,0 -0.111,-0.009 -0.192,-0.027 -0.079,-0.016 -0.14,-0.032 -0.181,-0.045 l 0.049,0.219 c 0.172,0.08 0.326,0.14 0.463,0.178 0.136,0.039 0.244,0.057 0.323,0.057 0.181,0 0.311,-0.043 0.392,-0.129 0.082,-0.084 0.122,-0.199 0.122,-0.343 0,-0.04 -0.003,-0.093 -0.014,-0.161 -0.007,-0.068 -0.021,-0.135 -0.039,-0.205 L -0.857,-3.476 C -0.88,-3.56 -0.898,-3.644 -0.915,-3.727 -0.93,-3.809 -0.939,-3.875 -0.939,-3.928 c 0,-0.125 0.027,-0.21 0.083,-0.257 0.055,-0.046 0.144,-0.068 0.268,-0.068 0.041,0 0.1,0.004 0.177,0.016 0.077,0.01 0.136,0.023 0.176,0.038"
             style="fill:#0d1b29;fill-opacity:1;fill-rule:nonzero;stroke:none"
             id="path3329" />
        </g>
        <g
           id="g3331"
           transform="matrix(4.1927001,0,0,-4.1927001,320.7349,491.00829)">
          <path
             inkscape:connector-curvature="0"
             d="m 0,0 c -0.221,0.238 -0.526,0.357 -0.916,0.357 -0.283,0 -0.545,-0.059 -0.787,-0.176 -0.242,-0.118 -0.446,-0.272 -0.61,-0.463 -0.162,-0.191 -0.292,-0.414 -0.388,-0.667 -0.095,-0.251 -0.144,-0.524 -0.144,-0.816 0,-0.398 0.114,-0.715 0.339,-0.95 0.228,-0.234 0.523,-0.352 0.886,-0.352 0.314,0 0.589,0.06 0.828,0.182 0.238,0.123 0.439,0.285 0.609,0.486 0.167,0.196 0.294,0.424 0.381,0.683 0.088,0.258 0.131,0.517 0.131,0.778 C 0.329,-0.552 0.22,-0.239 0,0 m -0.418,-1.545 c -0.05,-0.239 -0.123,-0.451 -0.216,-0.636 -0.095,-0.189 -0.217,-0.345 -0.367,-0.468 -0.151,-0.123 -0.325,-0.184 -0.518,-0.184 -0.219,0 -0.384,0.08 -0.492,0.242 -0.107,0.162 -0.162,0.399 -0.162,0.714 0,0.197 0.023,0.414 0.064,0.648 0.041,0.233 0.107,0.446 0.195,0.636 0.116,0.253 0.255,0.435 0.414,0.547 0.162,0.113 0.333,0.169 0.515,0.169 0.207,0 0.366,-0.078 0.478,-0.235 0.111,-0.156 0.164,-0.389 0.164,-0.701 0,-0.251 -0.023,-0.495 -0.075,-0.732"
             style="fill:#0d1b29;fill-opacity:1;fill-rule:nonzero;stroke:none"
             id="path3333" />
        </g>
        <g
           id="g3335"
           transform="matrix(4.1927001,0,0,-4.1927001,338.12834,501.77263)">
          <path
             inkscape:connector-curvature="0"
             d="m 0,0 -0.05,-0.218 c -0.2,-0.081 -0.355,-0.141 -0.466,-0.179 -0.111,-0.038 -0.223,-0.056 -0.337,-0.056 -0.177,0 -0.311,0.046 -0.398,0.136 -0.09,0.09 -0.135,0.205 -0.135,0.338 0,0.048 0.005,0.101 0.013,0.159 0.009,0.059 0.025,0.127 0.042,0.206 l 0.328,1.229 c 0.023,0.094 0.043,0.18 0.057,0.257 0.013,0.076 0.023,0.139 0.023,0.183 0,0.148 -0.037,0.265 -0.106,0.351 -0.069,0.085 -0.172,0.128 -0.306,0.128 -0.132,0 -0.28,-0.044 -0.443,-0.132 C -1.942,2.313 -2.097,2.184 -2.241,2.016 l -0.558,-2.414 -0.619,0 0.494,2.129 c 0.011,0.053 0.026,0.129 0.046,0.228 0.022,0.101 0.032,0.181 0.032,0.243 0,0.121 -0.021,0.204 -0.063,0.246 C -2.951,2.49 -3.034,2.511 -3.16,2.511 -3.208,2.511 -3.27,2.5 -3.344,2.484 -3.42,2.465 -3.477,2.453 -3.519,2.438 l 0.048,0.215 c 0.174,0.079 0.327,0.137 0.459,0.176 0.132,0.036 0.246,0.057 0.341,0.057 0.175,0 0.299,-0.048 0.374,-0.142 C -2.22,2.65 -2.181,2.52 -2.178,2.353 l 0.02,0 c 0.241,0.194 0.447,0.339 0.622,0.433 0.174,0.091 0.372,0.138 0.594,0.138 0.21,0 0.375,-0.06 0.492,-0.18 0.117,-0.123 0.176,-0.281 0.176,-0.479 0,-0.038 -0.007,-0.109 -0.017,-0.21 C -0.304,1.956 -0.323,1.855 -0.35,1.757 L -0.625,0.704 C -0.645,0.635 -0.664,0.554 -0.683,0.462 -0.701,0.374 -0.71,0.302 -0.71,0.25 c 0,-0.123 0.026,-0.209 0.083,-0.253 0.054,-0.045 0.143,-0.067 0.269,-0.067 0.042,0 0.101,0.007 0.179,0.022 C -0.101,-0.032 -0.042,-0.016 0,0"
             style="fill:#0d1b29;fill-opacity:1;fill-rule:nonzero;stroke:none"
             id="path3337" />
        </g>
        <g
           id="g3339"
           transform="matrix(4.1927001,0,0,-4.1927001,343.92181,503.86898)">
          <path
             inkscape:connector-curvature="0"
             d="m 0,0 c -0.324,0 -0.594,0.057 -0.811,0.172 -0.215,0.115 -0.322,0.265 -0.322,0.452 0,0.087 0.03,0.169 0.095,0.247 0.063,0.075 0.14,0.114 0.234,0.114 0.086,0 0.157,-0.02 0.211,-0.059 0.053,-0.042 0.094,-0.09 0.126,-0.144 0.032,-0.057 0.062,-0.124 0.087,-0.203 0.026,-0.079 0.045,-0.143 0.063,-0.195 0.033,-0.037 0.079,-0.072 0.138,-0.102 0.057,-0.031 0.141,-0.048 0.25,-0.048 0.236,0 0.416,0.06 0.537,0.179 0.121,0.119 0.183,0.278 0.183,0.481 0,0.15 -0.058,0.269 -0.174,0.358 C 0.505,1.34 0.334,1.423 0.109,1.498 0.029,1.524 -0.067,1.563 -0.177,1.619 -0.288,1.672 -0.375,1.729 -0.44,1.791 -0.52,1.862 -0.582,1.945 -0.631,2.042 -0.68,2.139 -0.704,2.253 -0.704,2.385 c 0,0.282 0.127,0.526 0.377,0.731 0.25,0.206 0.56,0.308 0.925,0.308 0.086,0 0.177,-0.003 0.277,-0.013 C 0.974,3.403 1.081,3.378 1.2,3.34 1.304,3.304 1.391,3.252 1.463,3.183 1.536,3.113 1.573,3.023 1.573,2.914 1.573,2.823 1.542,2.742 1.481,2.669 1.421,2.594 1.341,2.556 1.242,2.556 1.162,2.556 1.095,2.575 1.041,2.609 0.987,2.645 0.945,2.691 0.91,2.752 0.875,2.811 0.846,2.875 0.823,2.942 0.801,3.012 0.777,3.077 0.751,3.145 0.71,3.161 0.673,3.174 0.639,3.181 0.606,3.187 0.562,3.19 0.507,3.19 0.292,3.19 0.129,3.133 0.018,3.017 -0.094,2.902 -0.148,2.765 -0.148,2.606 -0.148,2.453 -0.099,2.337 0.002,2.26 0.102,2.181 0.267,2.099 0.499,2.016 0.797,1.908 1.015,1.785 1.151,1.646 1.285,1.508 1.353,1.337 1.353,1.132 1.353,0.797 1.226,0.524 0.968,0.314 0.713,0.105 0.389,0 0,0"
             style="fill:#0d1b29;fill-opacity:1;fill-rule:nonzero;stroke:none"
             id="path3341" />
        </g>
        <g
           id="g3343"
           transform="matrix(4.1927001,0,0,-4.1927001,366.16492,501.77263)">
          <path
             inkscape:connector-curvature="0"
             d="m 0,0 -0.052,-0.218 c -0.2,-0.081 -0.355,-0.141 -0.465,-0.179 -0.11,-0.038 -0.222,-0.056 -0.336,-0.056 -0.177,0 -0.31,0.046 -0.397,0.136 -0.089,0.09 -0.133,0.205 -0.133,0.338 0,0.048 0.004,0.101 0.012,0.159 0.01,0.059 0.023,0.127 0.044,0.206 l 0.321,1.229 c 0.024,0.094 0.045,0.18 0.057,0.257 0.015,0.076 0.022,0.139 0.022,0.183 0,0.148 -0.034,0.265 -0.103,0.351 C -1.1,2.491 -1.201,2.534 -1.335,2.534 -1.473,2.534 -1.62,2.489 -1.78,2.398 -1.94,2.307 -2.091,2.183 -2.234,2.02 l -0.559,-2.418 -0.618,0 0.978,4.235 c 0.011,0.051 0.021,0.093 0.029,0.127 0.007,0.036 0.011,0.073 0.011,0.113 0,0.079 -0.014,0.139 -0.04,0.182 -0.026,0.042 -0.064,0.074 -0.112,0.097 -0.04,0.021 -0.099,0.033 -0.171,0.039 -0.075,0.007 -0.146,0.015 -0.218,0.023 l 0.046,0.204 1.227,0.069 0.033,-0.047 -0.524,-2.272 0.012,0 c 0.223,0.182 0.424,0.321 0.6,0.414 0.175,0.092 0.376,0.138 0.6,0.138 0.21,0 0.371,-0.06 0.489,-0.18 0.117,-0.123 0.175,-0.281 0.175,-0.479 0,-0.038 -0.005,-0.109 -0.018,-0.21 -0.012,-0.099 -0.03,-0.2 -0.056,-0.298 L -0.627,0.704 C -0.645,0.635 -0.662,0.554 -0.683,0.462 -0.703,0.374 -0.714,0.302 -0.714,0.25 c 0,-0.123 0.03,-0.209 0.083,-0.253 0.057,-0.045 0.146,-0.067 0.271,-0.067 0.042,0 0.101,0.007 0.18,0.022 C -0.103,-0.032 -0.044,-0.016 0,0"
             style="fill:#0d1b29;fill-opacity:1;fill-rule:nonzero;stroke:none"
             id="path3345" />
        </g>
        <g
           id="g3347"
           transform="matrix(4.1927001,0,0,-4.1927001,375.56958,484.29954)">
          <path
             inkscape:connector-curvature="0"
             d="m 0,0 c 0,-0.125 -0.041,-0.234 -0.123,-0.328 -0.081,-0.093 -0.185,-0.14 -0.306,-0.14 -0.114,0 -0.21,0.044 -0.292,0.134 -0.081,0.087 -0.122,0.191 -0.122,0.305 0,0.12 0.041,0.227 0.122,0.317 0.082,0.089 0.178,0.135 0.292,0.135 0.126,0 0.231,-0.042 0.309,-0.128 C -0.04,0.212 0,0.113 0,0 m -0.234,-4.199 -0.05,-0.215 c -0.202,-0.084 -0.362,-0.142 -0.484,-0.173 -0.12,-0.033 -0.222,-0.05 -0.308,-0.05 -0.174,0 -0.308,0.047 -0.397,0.137 -0.087,0.091 -0.13,0.203 -0.13,0.337 0,0.051 0.004,0.103 0.014,0.157 0.007,0.054 0.022,0.124 0.042,0.208 l 0.347,1.396 c 0.017,0.078 0.034,0.159 0.051,0.247 0.017,0.087 0.025,0.162 0.025,0.223 0,0.122 -0.021,0.205 -0.061,0.245 -0.039,0.041 -0.124,0.062 -0.246,0.062 -0.048,0 -0.113,-0.009 -0.193,-0.027 -0.079,-0.016 -0.141,-0.032 -0.183,-0.045 l 0.052,0.219 c 0.17,0.08 0.325,0.14 0.462,0.178 0.136,0.039 0.243,0.057 0.321,0.057 0.181,0 0.313,-0.043 0.392,-0.129 0.083,-0.084 0.122,-0.199 0.122,-0.343 0,-0.04 -0.003,-0.093 -0.011,-0.161 -0.009,-0.068 -0.022,-0.135 -0.04,-0.205 L -0.856,-3.476 C -0.879,-3.56 -0.899,-3.644 -0.915,-3.727 -0.931,-3.809 -0.94,-3.875 -0.94,-3.928 c 0,-0.125 0.028,-0.21 0.085,-0.257 0.054,-0.046 0.145,-0.068 0.268,-0.068 0.038,0 0.098,0.004 0.176,0.016 0.077,0.01 0.136,0.023 0.177,0.038"
             style="fill:#0d1b29;fill-opacity:1;fill-rule:nonzero;stroke:none"
             id="path3349" />
        </g>
        <g
           id="g3351"
           transform="matrix(4.1927001,0,0,-4.1927001,389.60336,490.93658)">
          <path
             inkscape:connector-curvature="0"
             d="m 0,0 c -0.186,0.227 -0.443,0.34 -0.779,0.34 -0.168,0 -0.337,-0.045 -0.506,-0.134 -0.17,-0.091 -0.33,-0.205 -0.479,-0.343 l -0.026,0 C -1.811,0 -1.859,0.108 -1.938,0.185 -2.017,0.262 -2.136,0.302 -2.288,0.302 -2.384,0.302 -2.497,0.281 -2.632,0.24 -2.767,0.201 -2.916,0.142 -3.083,0.067 l -0.05,-0.213 c 0.041,0.013 0.099,0.026 0.173,0.045 0.074,0.017 0.135,0.027 0.185,0.027 0.127,0 0.209,-0.021 0.246,-0.062 0.039,-0.042 0.059,-0.125 0.059,-0.248 0,-0.062 -0.009,-0.135 -0.025,-0.218 -0.013,-0.085 -0.031,-0.169 -0.047,-0.252 l -0.686,-3.029 c -0.017,-0.079 -0.045,-0.145 -0.085,-0.199 -0.041,-0.055 -0.094,-0.091 -0.163,-0.111 -0.056,-0.015 -0.114,-0.026 -0.176,-0.032 -0.06,-0.007 -0.125,-0.012 -0.197,-0.017 l -0.047,-0.204 1.818,0 0.048,0.204 c -0.055,0.005 -0.117,0.011 -0.185,0.02 -0.068,0.009 -0.13,0.022 -0.183,0.04 -0.056,0.015 -0.104,0.041 -0.148,0.075 -0.043,0.036 -0.064,0.083 -0.064,0.143 0,0.028 0.005,0.066 0.011,0.116 0.008,0.048 0.019,0.098 0.033,0.155 l 0.192,0.865 c 0.092,-0.068 0.2,-0.126 0.321,-0.172 0.119,-0.046 0.274,-0.069 0.464,-0.069 0.232,0 0.462,0.052 0.682,0.154 0.223,0.104 0.428,0.262 0.619,0.475 0.172,0.194 0.307,0.42 0.411,0.686 0.103,0.263 0.153,0.541 0.153,0.837 C 0.276,-0.533 0.184,-0.227 0,0 m -1.132,-2.682 c -0.152,-0.104 -0.315,-0.152 -0.487,-0.152 -0.169,0 -0.313,0.053 -0.433,0.163 -0.119,0.108 -0.185,0.225 -0.202,0.35 l 0.418,1.864 c 0.177,0.17 0.324,0.284 0.446,0.346 0.124,0.061 0.234,0.091 0.334,0.091 0.137,0 0.247,-0.022 0.33,-0.069 0.085,-0.048 0.151,-0.115 0.199,-0.2 0.046,-0.076 0.079,-0.173 0.1,-0.291 0.021,-0.118 0.031,-0.234 0.031,-0.35 0,-0.257 -0.031,-0.499 -0.09,-0.729 -0.061,-0.229 -0.147,-0.434 -0.259,-0.613 -0.107,-0.173 -0.236,-0.311 -0.387,-0.41"
             style="fill:#0d1b29;fill-opacity:1;fill-rule:nonzero;stroke:none"
             id="path3353" />
        </g>
        <g
           id="g3355"
           transform="matrix(4.1927001,0,0,-4.1927001,404.64006,503.86898)">
          <path
             inkscape:connector-curvature="0"
             d="m 0,0 c -0.385,0 -0.689,0.112 -0.911,0.336 -0.224,0.224 -0.336,0.544 -0.336,0.959 0,0.274 0.043,0.538 0.128,0.79 0.083,0.252 0.202,0.476 0.353,0.673 0.152,0.196 0.344,0.356 0.576,0.479 C 0.041,3.362 0.3,3.424 0.583,3.424 0.896,3.424 1.136,3.359 1.3,3.227 1.465,3.093 1.546,2.928 1.546,2.727 1.546,2.575 1.51,2.442 1.439,2.328 1.368,2.215 1.261,2.158 1.12,2.158 1,2.158 0.912,2.186 0.852,2.248 0.793,2.305 0.765,2.37 0.765,2.442 c 0,0.071 0.023,0.165 0.069,0.287 0.045,0.12 0.081,0.217 0.11,0.291 C 0.918,3.079 0.865,3.123 0.782,3.15 0.699,3.177 0.612,3.19 0.523,3.19 0.224,3.19 -0.033,3.016 -0.25,2.669 -0.464,2.319 -0.573,1.892 -0.573,1.386 c 0,-0.312 0.07,-0.56 0.21,-0.744 0.138,-0.183 0.328,-0.276 0.565,-0.276 0.214,0 0.404,0.059 0.57,0.171 0.166,0.113 0.324,0.274 0.476,0.48 L 1.436,0.878 C 1.284,0.64 1.078,0.436 0.819,0.261 0.559,0.086 0.285,0 0,0"
             style="fill:#0d1b29;fill-opacity:1;fill-rule:nonzero;stroke:none"
             id="path3357" />
        </g>
        <g
           id="g3359"
           transform="matrix(4.1927001,0,0,-4.1927001,424.14997,491.00829)">
          <path
             inkscape:connector-curvature="0"
             d="M 0,0 C -0.223,0.238 -0.526,0.357 -0.917,0.357 -1.2,0.357 -1.461,0.298 -1.705,0.181 -1.946,0.063 -2.149,-0.091 -2.313,-0.282 -2.475,-0.473 -2.605,-0.696 -2.701,-0.949 -2.797,-1.2 -2.846,-1.473 -2.846,-1.765 c 0,-0.398 0.114,-0.715 0.342,-0.95 0.225,-0.234 0.52,-0.352 0.884,-0.352 0.314,0 0.589,0.06 0.827,0.182 0.238,0.123 0.44,0.285 0.61,0.486 0.166,0.196 0.292,0.424 0.38,0.683 0.09,0.258 0.132,0.517 0.132,0.778 C 0.329,-0.552 0.22,-0.239 0,0 m -0.418,-1.545 c -0.051,-0.239 -0.124,-0.451 -0.218,-0.636 -0.093,-0.189 -0.216,-0.345 -0.368,-0.468 -0.149,-0.123 -0.324,-0.184 -0.517,-0.184 -0.219,0 -0.382,0.08 -0.49,0.242 -0.108,0.162 -0.162,0.399 -0.162,0.714 0,0.197 0.02,0.414 0.063,0.648 0.04,0.233 0.106,0.446 0.195,0.636 0.116,0.253 0.254,0.435 0.415,0.547 0.16,0.113 0.333,0.169 0.514,0.169 0.208,0 0.367,-0.078 0.478,-0.235 0.11,-0.156 0.165,-0.389 0.165,-0.701 0,-0.251 -0.027,-0.495 -0.075,-0.732"
             style="fill:#0d1b29;fill-opacity:1;fill-rule:nonzero;stroke:none"
             id="path3361" />
        </g>
        <g
           id="g3363"
           transform="matrix(4.1927001,0,0,-4.1927001,449.70571,501.84012)">
          <path
             inkscape:connector-curvature="0"
             d="m 0,0 -0.051,-0.215 c -0.203,-0.083 -0.367,-0.14 -0.49,-0.173 -0.12,-0.033 -0.225,-0.049 -0.312,-0.049 -0.177,0 -0.311,0.046 -0.399,0.136 -0.089,0.091 -0.134,0.205 -0.134,0.338 0,0.048 0.005,0.101 0.013,0.159 0.01,0.059 0.024,0.127 0.044,0.206 l 0.325,1.229 c 0.025,0.094 0.044,0.18 0.058,0.257 0.014,0.076 0.021,0.139 0.021,0.183 0,0.148 -0.033,0.265 -0.094,0.351 C -1.081,2.507 -1.181,2.55 -1.317,2.55 -1.461,2.55 -1.604,2.515 -1.741,2.447 -1.882,2.376 -2.04,2.248 -2.213,2.058 l -0.577,-2.44 -0.615,0 0.521,2.202 c 0.009,0.049 0.02,0.097 0.03,0.152 0.01,0.053 0.014,0.093 0.014,0.119 0,0.143 -0.035,0.256 -0.105,0.337 C -3.015,2.509 -3.119,2.55 -3.256,2.55 -3.38,2.55 -3.518,2.519 -3.667,2.455 -3.816,2.394 -3.991,2.253 -4.187,2.036 l -0.561,-2.418 -0.618,0 0.495,2.133 c 0.017,0.077 0.034,0.16 0.051,0.247 0.015,0.086 0.023,0.163 0.023,0.223 0,0.129 -0.02,0.212 -0.062,0.253 -0.042,0.039 -0.123,0.06 -0.245,0.06 -0.048,0 -0.112,-0.009 -0.186,-0.027 C -5.367,2.49 -5.424,2.476 -5.467,2.464 l 0.051,0.211 c 0.171,0.077 0.324,0.135 0.456,0.171 0.132,0.037 0.247,0.056 0.342,0.056 0.176,0 0.301,-0.048 0.377,-0.142 0.072,-0.095 0.112,-0.226 0.116,-0.388 l 0.021,0 c 0.258,0.203 0.469,0.349 0.636,0.438 0.166,0.087 0.364,0.13 0.593,0.13 0.195,0 0.352,-0.055 0.473,-0.167 0.122,-0.114 0.189,-0.256 0.205,-0.429 l 0.014,0 c 0.231,0.196 0.44,0.344 0.622,0.445 0.182,0.101 0.394,0.151 0.636,0.151 0.209,0 0.37,-0.06 0.482,-0.18 0.113,-0.123 0.169,-0.281 0.169,-0.479 0,-0.038 -0.008,-0.109 -0.018,-0.21 C -0.304,1.972 -0.324,1.871 -0.35,1.773 L -0.626,0.72 C -0.646,0.651 -0.663,0.57 -0.683,0.479 -0.699,0.39 -0.708,0.318 -0.708,0.267 c 0,-0.123 0.025,-0.21 0.079,-0.254 0.053,-0.045 0.14,-0.067 0.266,-0.067 0.043,0 0.103,0.006 0.181,0.017 0.078,0.01 0.14,0.023 0.182,0.037"
             style="fill:#0d1b29;fill-opacity:1;fill-rule:nonzero;stroke:none"
             id="path3365" />
        </g>
        <g
           id="g3367"
           transform="matrix(4.1927001,0,0,-4.1927001,464.73825,490.93658)">
          <path
             inkscape:connector-curvature="0"
             d="m 0,0 c -0.184,0.227 -0.442,0.34 -0.776,0.34 -0.169,0 -0.338,-0.045 -0.507,-0.134 -0.17,-0.091 -0.33,-0.205 -0.478,-0.343 l -0.027,0 C -1.807,0 -1.857,0.108 -1.936,0.185 -2.016,0.262 -2.131,0.302 -2.286,0.302 -2.38,0.302 -2.495,0.281 -2.628,0.24 -2.763,0.201 -2.914,0.142 -3.079,0.067 L -3.13,-0.146 c 0.041,0.013 0.099,0.026 0.172,0.045 0.075,0.017 0.137,0.027 0.186,0.027 0.126,0 0.208,-0.021 0.247,-0.062 0.039,-0.042 0.058,-0.125 0.058,-0.248 0,-0.062 -0.008,-0.135 -0.023,-0.218 -0.016,-0.085 -0.031,-0.169 -0.05,-0.252 L -3.224,-3.883 C -3.242,-3.962 -3.27,-4.028 -3.311,-4.082 -3.352,-4.137 -3.405,-4.173 -3.474,-4.193 -3.528,-4.208 -3.585,-4.219 -3.647,-4.225 -3.71,-4.232 -3.776,-4.237 -3.846,-4.242 l -0.045,-0.204 1.818,0 0.045,0.204 c -0.055,0.005 -0.117,0.011 -0.182,0.02 -0.07,0.009 -0.13,0.022 -0.187,0.04 -0.054,0.015 -0.102,0.041 -0.146,0.075 -0.042,0.036 -0.065,0.083 -0.065,0.143 0,0.028 0.004,0.066 0.013,0.116 0.008,0.048 0.018,0.098 0.031,0.155 l 0.193,0.865 c 0.093,-0.068 0.2,-0.126 0.32,-0.172 0.12,-0.046 0.276,-0.069 0.464,-0.069 0.234,0 0.463,0.052 0.684,0.154 0.222,0.104 0.427,0.262 0.619,0.475 0.169,0.194 0.305,0.42 0.41,0.686 0.102,0.263 0.153,0.541 0.153,0.837 C 0.279,-0.533 0.186,-0.227 0,0 m -1.129,-2.682 c -0.152,-0.104 -0.313,-0.152 -0.487,-0.152 -0.169,0 -0.314,0.053 -0.434,0.163 -0.117,0.108 -0.184,0.225 -0.201,0.35 l 0.418,1.864 c 0.176,0.17 0.324,0.284 0.446,0.346 0.122,0.061 0.234,0.091 0.335,0.091 0.136,0 0.246,-0.022 0.329,-0.069 0.083,-0.048 0.15,-0.115 0.197,-0.2 0.047,-0.076 0.081,-0.173 0.102,-0.291 0.02,-0.118 0.031,-0.234 0.031,-0.35 0,-0.257 -0.03,-0.499 -0.091,-0.729 -0.06,-0.229 -0.145,-0.434 -0.258,-0.613 -0.108,-0.173 -0.237,-0.311 -0.387,-0.41"
             style="fill:#0d1b29;fill-opacity:1;fill-rule:nonzero;stroke:none"
             id="path3369" />
        </g>
        <g
           id="g3371"
           transform="matrix(4.1927001,0,0,-4.1927001,477.07274,503.09122)">
          <path
             inkscape:connector-curvature="0"
             d="m 0,0 c 0.093,-0.093 0.217,-0.138 0.375,-0.138 0.137,0 0.252,0.018 0.348,0.054 0.096,0.038 0.243,0.097 0.44,0.179 L 1.21,0.314 C 1.169,0.297 1.112,0.282 1.038,0.266 0.961,0.251 0.903,0.245 0.861,0.245 0.74,0.245 0.652,0.265 0.6,0.309 0.547,0.354 0.521,0.438 0.521,0.562 c 0,0.047 0.011,0.119 0.028,0.215 0.019,0.099 0.036,0.181 0.056,0.249 L 1.092,3.144 1.054,3.192 0.447,3.039 C 0.366,3.089 0.256,3.136 0.114,3.178 -0.027,3.219 -0.176,3.239 -0.33,3.239 -0.575,3.239 -0.813,3.18 -1.045,3.06 -1.278,2.94 -1.479,2.781 -1.646,2.585 -1.823,2.38 -1.962,2.149 -2.063,1.892 -2.164,1.633 -2.214,1.369 -2.214,1.096 c 0,-0.397 0.089,-0.709 0.272,-0.938 0.181,-0.229 0.432,-0.344 0.749,-0.344 0.121,0 0.23,0.021 0.331,0.063 0.1,0.04 0.195,0.089 0.28,0.146 0.092,0.055 0.17,0.115 0.237,0.175 0.067,0.063 0.123,0.114 0.173,0.155 l 0.022,0 C -0.14,0.21 -0.092,0.092 0,0 M -0.1,0.651 C -0.269,0.477 -0.424,0.354 -0.558,0.285 -0.694,0.217 -0.822,0.181 -0.947,0.181 c -0.121,0 -0.22,0.023 -0.299,0.07 -0.082,0.046 -0.142,0.112 -0.183,0.195 -0.046,0.086 -0.074,0.18 -0.089,0.285 -0.017,0.104 -0.024,0.222 -0.024,0.356 0,0.245 0.036,0.487 0.109,0.724 0.072,0.238 0.166,0.44 0.279,0.609 0.123,0.178 0.259,0.32 0.41,0.427 0.15,0.105 0.307,0.157 0.468,0.157 0.116,0 0.214,-0.016 0.291,-0.049 C 0.089,2.921 0.152,2.879 0.194,2.823 0.244,2.766 0.275,2.704 0.29,2.638 0.306,2.571 0.313,2.502 0.313,2.431 L -0.1,0.651 z"
             style="fill:#0d1b29;fill-opacity:1;fill-rule:nonzero;stroke:none"
             id="path3373" />
        </g>
        <g
           id="g3375"
           transform="matrix(4.1927001,0,0,-4.1927001,498.83453,501.77263)">
          <path
             inkscape:connector-curvature="0"
             d="m 0,0 -0.049,-0.218 c -0.2,-0.081 -0.355,-0.141 -0.467,-0.179 -0.11,-0.038 -0.222,-0.056 -0.336,-0.056 -0.178,0 -0.31,0.046 -0.399,0.136 -0.09,0.09 -0.133,0.205 -0.133,0.338 0,0.048 0.003,0.101 0.013,0.159 0.008,0.059 0.021,0.127 0.042,0.206 l 0.325,1.229 c 0.025,0.094 0.045,0.18 0.059,0.257 0.014,0.076 0.02,0.139 0.02,0.183 0,0.148 -0.033,0.265 -0.102,0.351 C -1.096,2.491 -1.2,2.534 -1.336,2.534 -1.466,2.534 -1.613,2.49 -1.777,2.402 -1.941,2.313 -2.096,2.184 -2.241,2.016 l -0.559,-2.414 -0.617,0 0.493,2.129 c 0.01,0.053 0.027,0.129 0.048,0.228 0.021,0.101 0.029,0.181 0.029,0.243 0,0.121 -0.02,0.204 -0.061,0.246 C -2.949,2.49 -3.033,2.511 -3.158,2.511 -3.207,2.511 -3.269,2.5 -3.342,2.484 -3.418,2.465 -3.476,2.453 -3.518,2.438 l 0.051,0.215 c 0.172,0.079 0.322,0.137 0.455,0.176 0.133,0.036 0.247,0.057 0.343,0.057 0.174,0 0.299,-0.048 0.373,-0.142 0.074,-0.094 0.116,-0.224 0.12,-0.391 l 0.019,0 c 0.241,0.194 0.448,0.339 0.622,0.433 0.174,0.091 0.373,0.138 0.596,0.138 0.209,0 0.372,-0.06 0.49,-0.18 0.116,-0.123 0.177,-0.281 0.177,-0.479 0,-0.038 -0.006,-0.109 -0.02,-0.21 -0.011,-0.099 -0.031,-0.2 -0.057,-0.298 L -0.625,0.704 C -0.645,0.635 -0.664,0.554 -0.682,0.462 -0.7,0.374 -0.71,0.302 -0.71,0.25 c 0,-0.123 0.028,-0.209 0.084,-0.253 0.053,-0.045 0.143,-0.067 0.267,-0.067 0.043,0 0.104,0.007 0.181,0.022 C -0.102,-0.032 -0.041,-0.016 0,0"
             style="fill:#0d1b29;fill-opacity:1;fill-rule:nonzero;stroke:none"
             id="path3377" />
        </g>
        <g
           id="g3379"
           transform="matrix(4.1927001,0,0,-4.1927001,509.4802,501.43259)">
          <path
             inkscape:connector-curvature="0"
             d="m 0,0 -0.023,0 c -0.199,-0.169 -0.388,-0.301 -0.57,-0.398 -0.182,-0.096 -0.387,-0.145 -0.618,-0.145 -0.209,0 -0.376,0.062 -0.497,0.183 -0.123,0.121 -0.183,0.279 -0.183,0.476 0,0.053 0.003,0.115 0.012,0.188 0.009,0.072 0.031,0.179 0.062,0.321 l 0.261,1.023 c 0.024,0.098 0.043,0.184 0.055,0.257 0.013,0.074 0.02,0.144 0.02,0.211 0,0.123 -0.02,0.205 -0.061,0.243 C -1.583,2.403 -1.664,2.421 -1.79,2.421 -1.838,2.421 -1.9,2.413 -1.975,2.394 -2.049,2.378 -2.108,2.362 -2.149,2.351 L -2.1,2.566 c 0.174,0.079 0.325,0.139 0.457,0.179 0.131,0.039 0.236,0.06 0.315,0.06 0.178,0 0.309,-0.039 0.394,-0.117 0.084,-0.08 0.127,-0.2 0.127,-0.356 0,-0.041 -0.004,-0.093 -0.012,-0.162 C -0.828,2.103 -0.84,2.035 -0.858,1.966 L -1.16,0.766 C -1.183,0.675 -1.203,0.588 -1.219,0.507 c -0.012,-0.079 -0.02,-0.14 -0.02,-0.182 0,-0.147 0.033,-0.263 0.105,-0.348 0.071,-0.085 0.172,-0.128 0.309,-0.128 0.158,0 0.311,0.038 0.462,0.118 0.15,0.079 0.292,0.187 0.424,0.325 L 0.612,2.75 1.188,2.789 1.229,2.74 0.655,0.164 C 0.571,-0.215 0.464,-0.536 0.336,-0.804 0.206,-1.07 0.054,-1.287 -0.118,-1.452 -0.3,-1.624 -0.496,-1.75 -0.707,-1.826 c -0.21,-0.077 -0.45,-0.116 -0.719,-0.116 -0.187,0 -0.334,0.012 -0.444,0.04 -0.109,0.026 -0.195,0.063 -0.261,0.108 -0.062,0.044 -0.104,0.093 -0.127,0.149 -0.022,0.055 -0.033,0.11 -0.033,0.166 0,0.093 0.029,0.177 0.085,0.25 0.057,0.072 0.14,0.108 0.246,0.108 0.081,0 0.15,-0.023 0.207,-0.069 0.057,-0.046 0.104,-0.097 0.137,-0.152 0.039,-0.061 0.075,-0.127 0.108,-0.202 0.032,-0.075 0.059,-0.135 0.08,-0.18 l 0.078,0 c 0.124,0 0.256,0.033 0.394,0.093 0.139,0.063 0.265,0.158 0.382,0.287 0.124,0.142 0.235,0.323 0.335,0.545 0.1,0.222 0.178,0.488 0.239,0.799"
             style="fill:#0d1b29;fill-opacity:1;fill-rule:nonzero;stroke:none"
             id="path3381" />
        </g>
        <g
           id="g3383"
           transform="matrix(4.1927001,0,0,-4.1927001,166.67162,425.44409)">
          <path
             inkscape:connector-curvature="0"
             d="M 0,0 -1.291,3.746 -2.581,0 l -1.137,0 -2.193,6.478 1.623,0 1.166,-3.495 1.208,3.495 1.247,0 1.207,-3.495 1.166,3.495 1.624,0 L 1.151,0 0,0 z"
             style="fill:#0d1b29;fill-opacity:1;fill-rule:nonzero;stroke:none"
             id="path3385" />
        </g>
        <g
           id="g3387"
           transform="matrix(4.1927001,0,0,-4.1927001,184.94928,403.49403)">
          <path
             inkscape:connector-curvature="0"
             d="m 0,0 4.942,0 0,-1.245 -3.654,0 0,-0.607 2.759,0 0,-1.231 -2.759,0 0,-0.919 3.857,0 0,-1.233 L 0,-5.235 0,0 z"
             style="fill:#0d1b29;fill-opacity:1;fill-rule:nonzero;stroke:none"
             id="path3389" />
        </g>
        <g
           id="g3391"
           transform="matrix(4.1927001,0,0,-4.1927001,211.11887,422.1545)">
          <path
             inkscape:connector-curvature="0"
             d="M 0,0 0.65,1.11 C 1.525,0.515 2.276,0.302 2.882,0.302 c 0.829,0 1.11,0.369 1.11,0.628 0,1.03 -3.688,-0.427 -3.688,2.029 0,1.008 0.94,1.615 2.208,1.615 0.863,0 1.792,-0.149 2.634,-0.475 L 4.522,3.043 C 3.548,3.462 3.074,3.488 2.551,3.462 1.822,3.428 1.603,3.071 1.603,2.959 1.603,2.61 2.067,2.555 2.818,2.555 4.365,2.555 5.313,2.119 5.313,0.885 5.313,-0.158 4.35,-0.931 2.96,-0.931 2.018,-0.931 1.044,-0.661 0,0"
             style="fill:#0d1b29;fill-opacity:1;fill-rule:nonzero;stroke:none"
             id="path3393" />
        </g>
        <g
           id="g3395"
           transform="matrix(4.1927001,0,0,-4.1927001,250.73234,425.44409)">
          <path
             inkscape:connector-curvature="0"
             d="m 0,0 -1.289,0 0,4.024 -1.973,0 0,1.211 5.234,0 0,-1.211 L 0,4.024 0,0 z"
             style="fill:#0d1b29;fill-opacity:1;fill-rule:nonzero;stroke:none"
             id="path3397" />
        </g>
        <g
           id="g3399"
           transform="matrix(4.1927001,0,0,-4.1927001,263.65049,403.49403)">
          <path
             inkscape:connector-curvature="0"
             d="m 0,0 4.944,0 0,-1.245 -3.653,0 0,-0.607 2.758,0 0,-1.231 -2.758,0 0,-0.919 3.855,0 0,-1.233 L 0,-5.235 0,0 z"
             style="fill:#0d1b29;fill-opacity:1;fill-rule:nonzero;stroke:none"
             id="path3401" />
        </g>
        <g
           id="g3403"
           transform="matrix(4.1927001,0,0,-4.1927001,309.13749,425.44409)">
          <path
             inkscape:connector-curvature="0"
             d="M 0,0 1.457,0 0.089,2.165 c 0.617,0.246 0.996,0.816 0.996,1.478 0,1.008 -0.738,1.58 -1.802,1.58 l -3.498,0 0,-5.223 1.289,0 0,2.041 1.604,0 L 0,0 z m -0.717,3.99 c 0.403,0 0.492,-0.146 0.492,-0.347 0,-0.214 -0.089,-0.359 -0.492,-0.359 l -2.209,0 0,0.706 2.209,0 z"
             style="fill:#0d1b29;fill-opacity:1;fill-rule:nonzero;stroke:none"
             id="path3405" />
        </g>
        <g
           id="g3407"
           transform="matrix(4.1927001,0,0,-4.1927001,325.94519,413.60307)">
          <path
             inkscape:connector-curvature="0"
             d="m 0,0 0,-2.824 -1.277,0 0,5.235 0.784,0 2.567,-2.837 0,2.837 1.279,0 0,-5.235 -0.784,0 L 0,0 z"
             style="fill:#0d1b29;fill-opacity:1;fill-rule:nonzero;stroke:none"
             id="path3409" />
        </g>
        <g
           id="g3411"
           transform="matrix(4.1927001,0,0,-4.1927001,368.25497,410.78809)">
          <path
             inkscape:connector-curvature="0"
             d="m 0,0 0,-3.496 -1.58,0 0,6.478 0.97,0 3.177,-3.509 0,3.509 1.581,0 0,-6.478 -0.971,0 L 0,0 z"
             style="fill:#0d1b29;fill-opacity:1;fill-rule:nonzero;stroke:none"
             id="path3413" />
        </g>
        <g
           id="g3415"
           transform="matrix(4.1927001,0,0,-4.1927001,410.16144,425.44409)">
          <path
             inkscape:connector-curvature="0"
             d="m 0,0 1.413,0 -2.692,5.235 -0.796,0 L -4.741,0 -3.341,0 -2.935,0.889 -0.442,0.886 0,0 z m -1.672,3.261 0.634,-1.255 -1.287,0 0.653,1.255 z"
             style="fill:#0d1b29;fill-opacity:1;fill-rule:nonzero;stroke:none"
             id="path3417" />
        </g>
        <g
           id="g3419"
           transform="matrix(4.1927001,0,0,-4.1927001,428.55773,425.44409)">
          <path
             inkscape:connector-curvature="0"
             d="m 0,0 -1.289,0 0,4.024 -1.972,0 0,1.211 5.234,0 0,-1.211 L 0,4.024 0,0 z"
             style="fill:#0d1b29;fill-opacity:1;fill-rule:nonzero;stroke:none"
             id="path3421" />
        </g>
        <path
           inkscape:connector-curvature="0"
           d="m 442.28255,403.45338 5.45051,0 0,22.03683 -5.45051,0 0,-22.03683 z"
           style="fill:#0d1b29;fill-opacity:1;fill-rule:nonzero;stroke:none"
           id="path3423" />
        <g
           id="g3425"
           transform="matrix(4.1927001,0,0,-4.1927001,467.03709,426.0583)">
          <path
             inkscape:connector-curvature="0"
             d="M 0,0 C 1.85,0 3.149,1.177 3.149,2.758 3.149,4.349 1.85,5.505 0,5.505 -1.839,5.505 -3.139,4.339 -3.139,2.758 -3.139,1.2 -1.839,0 0,0 M 0,4.271 C 1.165,4.271 1.838,3.565 1.838,2.758 1.838,1.951 1.176,1.244 0,1.244 c -1.156,0 -1.828,0.697 -1.828,1.514 0,0.818 0.672,1.513 1.828,1.513"
             style="fill:#0d1b29;fill-opacity:1;fill-rule:nonzero;stroke:none"
             id="path3427" />
        </g>
        <g
           id="g3429"
           transform="matrix(4.1927001,0,0,-4.1927001,491.17615,413.60307)">
          <path
             inkscape:connector-curvature="0"
             d="m 0,0 0,-2.824 -1.277,0 0,5.235 0.784,0 2.566,-2.837 0,2.837 1.279,0 0,-5.235 -0.786,0 L 0,0 z"
             style="fill:#0d1b29;fill-opacity:1;fill-rule:nonzero;stroke:none"
             id="path3431" />
        </g>
        <g
           id="g3433"
           transform="matrix(4.1927001,0,0,-4.1927001,539.05007,403.49403)">
          <path
             inkscape:connector-curvature="0"
             d="m 0,0 1.29,0 0,-4.002 3.101,0 0,-1.233 L 0,-5.235 0,0 z"
             style="fill:#0d1b29;fill-opacity:1;fill-rule:nonzero;stroke:none"
             id="path3435" />
        </g>
        <g
           id="g3437"
           transform="matrix(4.1927001,0,0,-4.1927001,529.1599,425.40508)">
          <path
             inkscape:connector-curvature="0"
             d="m 0,0 1.414,0 -2.692,5.233 -0.795,0 L -4.74,0 -3.34,0 -2.936,0.889 -0.441,0.885 0,0 z m -1.67,3.261 0.634,-1.256 -1.288,0 0.654,1.256 z"
             style="fill:#0d1b29;fill-opacity:1;fill-rule:nonzero;stroke:none"
             id="path3439" />
        </g>
        <g
           id="g3441"
           transform="matrix(4.1927001,0,0,-4.1927001,298.6658,450.35081)">
          <path
             inkscape:connector-curvature="0"
             d="m 0,0 0.439,0.746 c 0.587,-0.4 1.095,-0.543 1.501,-0.543 0.559,0 0.748,0.248 0.748,0.422 0,0.695 -2.484,-0.287 -2.484,1.367 0,0.679 0.634,1.087 1.488,1.087 0.581,0 1.207,-0.1 1.774,-0.317 L 3.045,2.048 C 2.389,2.331 2.07,2.349 1.718,2.331 1.226,2.308 1.079,2.068 1.079,1.992 1.079,1.758 1.392,1.721 1.897,1.721 2.939,1.721 3.578,1.426 3.578,0.596 3.578,-0.106 2.93,-0.627 1.993,-0.627 1.36,-0.627 0.703,-0.447 0,0"
             style="fill:#7d7e82;fill-opacity:1;fill-rule:nonzero;stroke:none"
             id="path3443" />
        </g>
        <path
           inkscape:connector-curvature="0"
           d="m 271.6145,433.83368 3.76505,0 0,18.95939 -3.76505,0 0,-18.95939 z"
           style="fill:#7d7e82;fill-opacity:1;fill-rule:nonzero;stroke:none"
           id="path3445" />
        <g
           id="g3447"
           transform="matrix(4.1927001,0,0,-4.1927001,284.98251,444.68607)">
          <path
             inkscape:connector-curvature="0"
             d="m 0,0 0,-1.918 -0.868,0 0,3.556 0.531,0 1.745,-1.927 0,1.927 0.868,0 0,-3.556 -0.535,0 L 0,0 z"
             style="fill:#7d7e82;fill-opacity:1;fill-rule:nonzero;stroke:none"
             id="path3449" />
        </g>
        <g
           id="g3451"
           transform="matrix(4.1927001,0,0,-4.1927001,318.13922,447.71779)">
          <path
             inkscape:connector-curvature="0"
             d="m 0,0 0,2.354 0.876,0 0,-2.224 c 0,-0.463 0.083,-0.587 0.884,-0.587 0.798,0 0.882,0.124 0.882,0.587 l 0,2.224 0.877,0 0,-2.354 C 3.519,-0.942 2.894,-1.294 1.75,-1.294 0.594,-1.294 0,-0.942 0,0"
             style="fill:#7d7e82;fill-opacity:1;fill-rule:nonzero;stroke:none"
             id="path3453" />
        </g>
        <g
           id="g3455"
           transform="matrix(4.1927001,0,0,-4.1927001,350.03057,452.72726)">
          <path
             inkscape:connector-curvature="0"
             d="M 0,0 0.992,0 0.062,1.47 C 0.481,1.638 0.74,2.025 0.74,2.475 0.74,3.16 0.236,3.548 -0.485,3.548 l -2.376,0 0,-3.548 0.876,0 0,1.386 1.088,0 L 0,0 z m -0.485,2.71 c 0.273,0 0.332,-0.099 0.332,-0.235 0,-0.146 -0.059,-0.244 -0.332,-0.244 l -1.5,0 0,0.479 1.5,0 z"
             style="fill:#7d7e82;fill-opacity:1;fill-rule:nonzero;stroke:none"
             id="path3457" />
        </g>
        <g
           id="g3459"
           transform="matrix(4.1927001,0,0,-4.1927001,380.73288,444.68607)">
          <path
             inkscape:connector-curvature="0"
             d="m 0,0 0,-1.918 -0.869,0 0,3.556 0.534,0 1.743,-1.927 0,1.927 0.869,0 0,-3.556 -0.533,0 L 0,0 z"
             style="fill:#7d7e82;fill-opacity:1;fill-rule:nonzero;stroke:none"
             id="path3461" />
        </g>
        <g
           id="g3463"
           transform="matrix(4.1927001,0,0,-4.1927001,394.24219,445.31873)">
          <path
             inkscape:connector-curvature="0"
             d="m 0,0 c 0,1.087 0.898,1.873 2.108,1.873 0.747,0 1.403,-0.297 1.896,-0.983 L 3.295,0.403 C 2.969,0.853 2.597,1.036 2.108,1.036 1.37,1.036 0.892,0.57 0.892,0.006 c 0,-0.562 0.478,-1.027 1.216,-1.027 0.51,0 0.869,0.19 1.272,0.762 L 4.081,-0.748 C 3.586,-1.531 2.917,-1.866 2.108,-1.866 0.898,-1.866 0,-1.089 0,0"
             style="fill:#7d7e82;fill-opacity:1;fill-rule:nonzero;stroke:none"
             id="path3465" />
        </g>
        <g
           id="g3467"
           transform="matrix(4.1927001,0,0,-4.1927001,415.12392,437.81967)">
          <path
             inkscape:connector-curvature="0"
             d="m 0,0 3.359,0 0,-0.846 -2.483,0 0,-0.41 1.906,0 0,-0.837 -1.906,0 0,-0.626 2.619,0 0,-0.837 L 0,-3.556 0,0 z"
             style="fill:#7d7e82;fill-opacity:1;fill-rule:nonzero;stroke:none"
             id="path3469" />
        </g>
        <g
           id="g3471"
           transform="matrix(4.1927001,0,0,-4.1927001,370.07084,452.67021)">
          <path
             inkscape:connector-curvature="0"
             d="m 0,0 0.96,0 -1.827,3.554 -0.54,0 L -3.219,0 -2.267,0 -1.991,0.604 -0.3,0.602 0,0 z m -1.134,2.213 0.431,-0.851 -0.874,0 0.443,0.851 z"
             style="fill:#7d7e82;fill-opacity:1;fill-rule:nonzero;stroke:none"
             id="path3473" />
        </g>
        <g
           id="g3475"
           transform="matrix(4.1927001,0,0,-4.1927001,517.57506,491.73319)">
          <path
             inkscape:connector-curvature="0"
             d="m 0,0 0,0.163 0.119,0 c 0.079,0 0.1,-0.025 0.1,-0.072 C 0.219,0.042 0.198,0.003 0.104,0 L 0,0 z m 0.083,-0.099 c 0.034,-0.002 0.067,0 0.09,-0.025 0.03,-0.03 0.03,-0.082 0.038,-0.135 0.004,-0.037 0.014,-0.077 0.02,-0.114 l 0.127,0 C 0.336,-0.316 0.33,-0.25 0.321,-0.189 0.312,-0.12 0.302,-0.082 0.214,-0.063 l 0,0.002 c 0.083,0.016 0.129,0.075 0.129,0.147 0,0.145 -0.121,0.176 -0.239,0.176 l -0.205,0 0,-0.635 0.101,0 0,0.274 0.083,0 z m 0.031,-0.505 c 0.299,0 0.539,0.242 0.539,0.541 0,0.296 -0.24,0.539 -0.539,0.539 -0.3,0 -0.541,-0.243 -0.541,-0.539 0,-0.299 0.241,-0.541 0.541,-0.541 m 0,0.094 c -0.246,0 -0.445,0.201 -0.445,0.447 0,0.245 0.199,0.443 0.445,0.443 0.246,0 0.443,-0.198 0.443,-0.443 0,-0.246 -0.197,-0.447 -0.443,-0.447"
             style="fill:#0d1b29;fill-opacity:1;fill-rule:nonzero;stroke:none"
             id="path3477" />
        </g>
        <g
           id="g3479"
           transform="matrix(4.1927001,0,0,-4.1927001,325.68524,314.33754)">
          <path
             inkscape:connector-curvature="0"
             d="m 0,0 5.872,9.857 6.8,-11.269 6.472,10.949 8.975,0 L 12.672,-17.136 5.922,-5.474 4.583,-7.794 0,0 z"
             style="fill:#0d80c8;fill-opacity:1;fill-rule:nonzero;stroke:none"
             id="path3481" />
        </g>
        <path
           inkscape:connector-curvature="0"
           d="m 322.11266,386.15386 -65.14618,-111.80254 37.45759,0 46.55574,79.372 -18.86715,32.43054 z"
           style="fill:#1f4fa2;fill-opacity:1;fill-rule:nonzero;stroke:none"
           id="path3485" />
        <g
           id="g3487"
           transform="matrix(4.1927001,0,0,-4.1927001,447.3901,277.88704)">
          <path
             inkscape:connector-curvature="0"
             d="m 0,0 0,0.283 0.208,0 C 0.346,0.283 0.383,0.241 0.383,0.157 0.383,0.072 0.346,0.005 0.184,0 L 0,0 z m 0.145,-0.173 c 0.063,-0.006 0.118,0 0.159,-0.045 0.052,-0.053 0.052,-0.14 0.065,-0.236 0.007,-0.064 0.024,-0.134 0.038,-0.196 l 0.219,0 C 0.59,-0.55 0.575,-0.436 0.56,-0.331 0.544,-0.21 0.526,-0.143 0.373,-0.113 l 0,0.005 c 0.148,0.03 0.225,0.13 0.225,0.258 0,0.25 -0.209,0.305 -0.412,0.305 l -0.358,0 0,-1.105 0.172,0 0,0.477 0.145,0 z M 0.2,-1.053 c 0.522,0 0.938,0.419 0.938,0.943 0,0.518 -0.416,0.938 -0.938,0.938 -0.523,0 -0.943,-0.42 -0.943,-0.938 0,-0.524 0.42,-0.943 0.943,-0.943 m 0,0.163 c -0.43,0 -0.778,0.348 -0.778,0.78 0,0.424 0.348,0.773 0.778,0.773 0.428,0 0.774,-0.349 0.774,-0.773 0,-0.432 -0.346,-0.78 -0.774,-0.78"
             style="fill:#0d80c8;fill-opacity:1;fill-rule:nonzero;stroke:none"
             id="path3489" />
        </g>
      </g>
      <g
         transform="translate(-20.360254,-2.1814558)"
         id="g4308">
        <g
           transform="matrix(4.1927001,0,0,-4.1927001,206.48802,484.56579)"
           id="g4310">
          <path
             id="path4312"
             style="fill:#0d1b29;fill-opacity:1;fill-rule:nonzero;stroke:none"
             d="m 0,0 -0.29,-1.222 -0.228,0 c -0.001,0.073 -0.011,0.167 -0.03,0.28 -0.018,0.113 -0.045,0.214 -0.079,0.305 -0.038,0.096 -0.087,0.179 -0.147,0.248 -0.061,0.07 -0.132,0.11 -0.215,0.122 -0.066,0.009 -0.15,0.014 -0.251,0.02 -0.102,0.003 -0.196,0.006 -0.284,0.006 l -0.208,0 -0.868,-3.624 c -0.004,-0.016 -0.006,-0.035 -0.009,-0.054 -0.003,-0.02 -0.003,-0.04 -0.003,-0.059 0,-0.05 0.008,-0.093 0.029,-0.126 0.02,-0.032 0.057,-0.061 0.112,-0.085 0.044,-0.019 0.123,-0.039 0.238,-0.063 0.115,-0.024 0.209,-0.038 0.281,-0.04 l -0.052,-0.21 -2.205,0 0.053,0.21 c 0.066,0.005 0.16,0.014 0.285,0.026 0.125,0.012 0.216,0.028 0.274,0.046 0.087,0.033 0.152,0.075 0.196,0.132 0.046,0.054 0.074,0.119 0.092,0.195 l 0.875,3.652 -0.172,0 c -0.069,0 -0.151,-0.003 -0.249,-0.005 -0.1,-0.002 -0.201,-0.009 -0.304,-0.021 -0.072,-0.008 -0.157,-0.049 -0.255,-0.123 -0.097,-0.076 -0.192,-0.163 -0.289,-0.263 -0.093,-0.098 -0.176,-0.198 -0.251,-0.3 -0.075,-0.101 -0.134,-0.192 -0.175,-0.269 l -0.227,0 L -4.063,0 0,0 z"
             inkscape:connector-curvature="0" />
        </g>
        <g
           transform="matrix(4.1927001,0,0,-4.1927001,218.96593,501.77263)"
           id="g4314">
          <path
             id="path4316"
             style="fill:#0d1b29;fill-opacity:1;fill-rule:nonzero;stroke:none"
             d="m 0,0 -0.051,-0.218 c -0.199,-0.081 -0.353,-0.141 -0.464,-0.179 -0.111,-0.038 -0.222,-0.056 -0.336,-0.056 -0.177,0 -0.311,0.046 -0.399,0.136 -0.088,0.09 -0.133,0.205 -0.133,0.338 0,0.048 0.006,0.101 0.014,0.159 0.009,0.059 0.022,0.127 0.042,0.206 l 0.322,1.229 c 0.026,0.094 0.044,0.18 0.059,0.257 0.014,0.076 0.019,0.139 0.019,0.183 0,0.148 -0.032,0.265 -0.101,0.351 C -1.096,2.491 -1.2,2.534 -1.335,2.534 -1.471,2.534 -1.62,2.489 -1.779,2.398 -1.938,2.307 -2.09,2.183 -2.233,2.02 l -0.559,-2.418 -0.618,0 0.979,4.235 c 0.012,0.051 0.019,0.093 0.028,0.127 0.007,0.036 0.011,0.073 0.011,0.113 0,0.079 -0.013,0.139 -0.039,0.182 -0.027,0.042 -0.064,0.074 -0.112,0.097 -0.044,0.021 -0.099,0.033 -0.172,0.039 -0.073,0.007 -0.146,0.015 -0.219,0.023 l 0.047,0.204 1.227,0.069 0.035,-0.047 -0.528,-2.272 0.014,0 c 0.224,0.182 0.425,0.321 0.601,0.414 0.177,0.092 0.376,0.138 0.6,0.138 0.207,0 0.37,-0.06 0.488,-0.18 0.117,-0.123 0.176,-0.281 0.176,-0.479 0,-0.038 -0.007,-0.109 -0.018,-0.21 C -0.304,1.956 -0.323,1.855 -0.35,1.757 L -0.625,0.704 C -0.643,0.635 -0.662,0.554 -0.681,0.462 -0.701,0.374 -0.712,0.302 -0.712,0.25 c 0,-0.123 0.029,-0.209 0.084,-0.253 0.054,-0.045 0.143,-0.067 0.269,-0.067 0.042,0 0.102,0.007 0.179,0.022 C -0.103,-0.032 -0.042,-0.016 0,0"
             inkscape:connector-curvature="0" />
        </g>
        <g
           transform="matrix(4.1927001,0,0,-4.1927001,231.5826,490.3165)"
           id="g4318">
          <path
             id="path4320"
             style="fill:#0d1b29;fill-opacity:1;fill-rule:nonzero;stroke:none"
             d="m 0,0 c -0.152,0.128 -0.387,0.192 -0.703,0.192 -0.285,0 -0.547,-0.063 -0.782,-0.188 -0.237,-0.126 -0.436,-0.291 -0.598,-0.495 -0.169,-0.209 -0.294,-0.44 -0.38,-0.693 -0.088,-0.252 -0.132,-0.516 -0.132,-0.795 0,-0.399 0.103,-0.709 0.309,-0.928 0.207,-0.216 0.505,-0.325 0.893,-0.325 0.284,0 0.559,0.08 0.822,0.238 0.263,0.16 0.482,0.374 0.659,0.64 L -0.1,-2.216 c -0.162,-0.215 -0.329,-0.377 -0.496,-0.486 -0.168,-0.109 -0.362,-0.164 -0.583,-0.164 -0.249,0 -0.437,0.093 -0.565,0.276 -0.129,0.184 -0.193,0.45 -0.193,0.796 0.251,0.03 0.484,0.07 0.691,0.116 0.209,0.046 0.413,0.107 0.619,0.182 0.279,0.098 0.491,0.232 0.637,0.4 0.147,0.168 0.219,0.367 0.219,0.602 C 0.229,-0.294 0.152,-0.13 0,0 m -0.507,-0.941 c -0.089,-0.149 -0.224,-0.272 -0.405,-0.364 -0.13,-0.067 -0.291,-0.12 -0.484,-0.161 -0.194,-0.04 -0.367,-0.072 -0.521,-0.093 0.059,0.433 0.201,0.793 0.423,1.082 0.224,0.29 0.468,0.435 0.732,0.435 0.046,0 0.091,-0.003 0.135,-0.01 0.044,-0.007 0.085,-0.023 0.125,-0.05 0.037,-0.023 0.068,-0.061 0.093,-0.11 0.024,-0.05 0.034,-0.117 0.034,-0.203 0,-0.203 -0.043,-0.379 -0.132,-0.526"
             inkscape:connector-curvature="0" />
        </g>
        <g
           transform="matrix(4.1927001,0,0,-4.1927001,253.05801,491.74745)"
           id="g4322">
          <path
             id="path4324"
             style="fill:#0d1b29;fill-opacity:1;fill-rule:nonzero;stroke:none"
             d="m 0,0 c 0,-0.063 -0.01,-0.129 -0.026,-0.202 -0.018,-0.075 -0.042,-0.135 -0.076,-0.184 -0.039,-0.058 -0.082,-0.104 -0.128,-0.135 -0.046,-0.032 -0.114,-0.048 -0.201,-0.048 -0.118,0 -0.205,0.03 -0.264,0.09 -0.058,0.059 -0.087,0.124 -0.087,0.196 0,0.069 0.016,0.144 0.048,0.228 0.034,0.085 0.067,0.169 0.103,0.252 -0.025,0 -0.071,-0.008 -0.131,-0.021 C -0.821,0.162 -0.895,0.133 -0.98,0.093 -1.065,0.049 -1.162,-0.014 -1.271,-0.098 -1.379,-0.181 -1.494,-0.294 -1.617,-0.433 l -0.528,-2.357 -0.616,0 0.476,2.13 c 0.012,0.053 0.027,0.132 0.048,0.237 0.02,0.106 0.032,0.182 0.032,0.234 0,0.121 -0.021,0.204 -0.063,0.246 C -2.31,0.099 -2.393,0.12 -2.516,0.12 -2.564,0.12 -2.624,0.109 -2.699,0.093 -2.771,0.074 -2.829,0.062 -2.87,0.047 l 0.048,0.215 c 0.172,0.079 0.322,0.137 0.454,0.176 0.131,0.036 0.244,0.057 0.338,0.057 0.174,0 0.299,-0.048 0.372,-0.144 0.077,-0.095 0.114,-0.238 0.114,-0.428 l 0.019,0 c 0.26,0.228 0.458,0.385 0.591,0.475 0.136,0.091 0.276,0.135 0.422,0.135 0.07,0 0.139,-0.008 0.204,-0.025 C -0.243,0.49 -0.188,0.46 -0.141,0.419 -0.093,0.374 -0.058,0.32 -0.036,0.26 -0.012,0.2 0,0.113 0,0"
             inkscape:connector-curvature="0" />
        </g>
        <g
           transform="matrix(4.1927001,0,0,-4.1927001,263.96574,490.3165)"
           id="g4326">
          <path
             id="path4328"
             style="fill:#0d1b29;fill-opacity:1;fill-rule:nonzero;stroke:none"
             d="m 0,0 c -0.151,0.128 -0.387,0.192 -0.702,0.192 -0.286,0 -0.546,-0.063 -0.783,-0.188 -0.235,-0.126 -0.434,-0.291 -0.596,-0.495 -0.169,-0.209 -0.295,-0.44 -0.382,-0.693 -0.086,-0.252 -0.13,-0.516 -0.13,-0.795 0,-0.399 0.103,-0.709 0.309,-0.928 0.206,-0.216 0.502,-0.325 0.891,-0.325 0.284,0 0.557,0.08 0.823,0.238 0.262,0.16 0.484,0.374 0.659,0.64 l -0.188,0.138 c -0.163,-0.215 -0.329,-0.377 -0.497,-0.486 -0.168,-0.109 -0.362,-0.164 -0.582,-0.164 -0.248,0 -0.436,0.093 -0.565,0.276 -0.128,0.184 -0.194,0.45 -0.194,0.796 0.253,0.03 0.484,0.07 0.691,0.116 0.209,0.046 0.416,0.107 0.62,0.182 0.279,0.098 0.492,0.232 0.638,0.4 0.145,0.168 0.217,0.367 0.217,0.602 C 0.229,-0.294 0.154,-0.13 0,0 m -0.506,-0.941 c -0.089,-0.149 -0.225,-0.272 -0.408,-0.364 -0.127,-0.067 -0.287,-0.12 -0.481,-0.161 -0.194,-0.04 -0.368,-0.072 -0.522,-0.093 0.061,0.433 0.201,0.793 0.424,1.082 0.224,0.29 0.468,0.435 0.731,0.435 0.046,0 0.091,-0.003 0.136,-0.01 0.044,-0.007 0.087,-0.023 0.125,-0.05 0.038,-0.023 0.067,-0.061 0.092,-0.11 0.024,-0.05 0.038,-0.117 0.038,-0.203 0,-0.203 -0.046,-0.379 -0.135,-0.526"
             inkscape:connector-curvature="0" />
        </g>
        <g
           transform="matrix(4.1927001,0,0,-4.1927001,273.79846,482.30341)"
           id="g4330">
          <path
             id="path4332"
             style="fill:#0d1b29;fill-opacity:1;fill-rule:nonzero;stroke:none"
             d="M 0,0 -0.918,-3.952 C -0.937,-4.035 -0.957,-4.118 -0.974,-4.2 -0.991,-4.284 -1,-4.353 -1,-4.404 c 0,-0.125 0.027,-0.21 0.083,-0.257 0.055,-0.046 0.143,-0.068 0.269,-0.068 0.043,0 0.106,0.004 0.192,0.016 0.086,0.01 0.151,0.023 0.195,0.038 L -0.312,-4.89 c -0.195,-0.08 -0.348,-0.138 -0.454,-0.172 -0.106,-0.034 -0.227,-0.051 -0.359,-0.051 -0.177,0 -0.309,0.047 -0.401,0.136 -0.09,0.093 -0.135,0.205 -0.135,0.338 0,0.051 0.005,0.104 0.015,0.158 0.008,0.055 0.023,0.124 0.04,0.208 l 0.801,3.465 c 0.016,0.068 0.027,0.116 0.031,0.142 0.006,0.025 0.01,0.059 0.01,0.099 0,0.078 -0.013,0.139 -0.041,0.182 -0.026,0.043 -0.064,0.074 -0.112,0.097 -0.046,0.021 -0.106,0.034 -0.177,0.039 -0.072,0.007 -0.142,0.015 -0.216,0.023 l 0.047,0.204 1.229,0.07 L 0,0 z"
             inkscape:connector-curvature="0" />
        </g>
        <g
           transform="matrix(4.1927001,0,0,-4.1927001,283.77249,503.09122)"
           id="g4334">
          <path
             id="path4336"
             style="fill:#0d1b29;fill-opacity:1;fill-rule:nonzero;stroke:none"
             d="m 0,0 c 0.092,-0.093 0.216,-0.138 0.374,-0.138 0.135,0 0.253,0.018 0.35,0.054 0.094,0.038 0.242,0.097 0.437,0.179 L 1.21,0.314 C 1.169,0.297 1.112,0.282 1.036,0.266 0.96,0.251 0.903,0.245 0.861,0.245 0.739,0.245 0.653,0.265 0.6,0.309 0.546,0.354 0.521,0.438 0.521,0.562 c 0,0.047 0.01,0.119 0.029,0.215 0.018,0.099 0.035,0.181 0.053,0.249 L 1.093,3.144 1.054,3.192 0.448,3.039 C 0.367,3.089 0.255,3.136 0.115,3.178 -0.027,3.219 -0.175,3.239 -0.33,3.239 -0.577,3.239 -0.814,3.18 -1.046,3.06 -1.279,2.94 -1.479,2.781 -1.647,2.585 -1.824,2.38 -1.963,2.149 -2.063,1.892 -2.165,1.633 -2.214,1.369 -2.214,1.096 c 0,-0.397 0.089,-0.709 0.271,-0.938 0.181,-0.229 0.432,-0.344 0.75,-0.344 0.12,0 0.229,0.021 0.33,0.063 0.102,0.04 0.194,0.089 0.281,0.146 0.091,0.055 0.168,0.115 0.236,0.175 0.066,0.063 0.124,0.114 0.172,0.155 l 0.024,0 C -0.142,0.21 -0.091,0.092 0,0 M -0.1,0.651 C -0.272,0.477 -0.424,0.354 -0.559,0.285 -0.695,0.217 -0.824,0.181 -0.947,0.181 c -0.122,0 -0.223,0.023 -0.301,0.07 -0.08,0.046 -0.14,0.112 -0.182,0.195 -0.045,0.086 -0.074,0.18 -0.089,0.285 -0.015,0.104 -0.023,0.222 -0.023,0.356 0,0.245 0.035,0.487 0.108,0.724 0.073,0.238 0.167,0.44 0.281,0.609 0.121,0.178 0.257,0.32 0.408,0.427 0.151,0.105 0.308,0.157 0.469,0.157 0.116,0 0.213,-0.016 0.29,-0.049 C 0.09,2.921 0.151,2.879 0.196,2.823 0.244,2.766 0.275,2.704 0.29,2.638 0.305,2.571 0.313,2.502 0.313,2.431 L -0.1,0.651 z"
             inkscape:connector-curvature="0" />
        </g>
        <g
           transform="matrix(4.1927001,0,0,-4.1927001,293.86141,503.73985)"
           id="g4338">
          <path
             id="path4340"
             style="fill:#0d1b29;fill-opacity:1;fill-rule:nonzero;stroke:none"
             d="m 0,0 c -0.207,0 -0.36,0.042 -0.457,0.127 -0.096,0.084 -0.145,0.206 -0.145,0.363 0,0.052 0.003,0.099 0.011,0.144 0.006,0.044 0.015,0.097 0.026,0.154 l 0.514,2.199 -0.591,0 0.07,0.298 0.602,0 0.228,0.961 0.595,0 -0.222,-0.961 0.911,0 -0.069,-0.298 -0.902,0 L 0.146,1.173 C 0.127,1.09 0.109,1.01 0.096,0.932 0.083,0.854 0.077,0.788 0.077,0.732 c 0,-0.121 0.029,-0.209 0.09,-0.265 0.06,-0.056 0.168,-0.083 0.325,-0.083 0.057,0 0.136,0.007 0.24,0.022 0.101,0.014 0.183,0.033 0.239,0.056 L 0.915,0.22 C 0.762,0.159 0.617,0.108 0.482,0.065 0.345,0.022 0.185,0 0,0"
             inkscape:connector-curvature="0" />
        </g>
        <g
           transform="matrix(4.1927001,0,0,-4.1927001,308.08512,484.29954)"
           id="g4342">
          <path
             id="path4344"
             style="fill:#0d1b29;fill-opacity:1;fill-rule:nonzero;stroke:none"
             d="m 0,0 c 0,-0.125 -0.041,-0.234 -0.124,-0.328 -0.081,-0.093 -0.183,-0.14 -0.305,-0.14 -0.113,0 -0.209,0.044 -0.292,0.134 -0.082,0.087 -0.123,0.191 -0.123,0.305 0,0.12 0.041,0.227 0.123,0.317 0.083,0.089 0.179,0.135 0.292,0.135 0.126,0 0.23,-0.042 0.311,-0.128 C -0.04,0.212 0,0.113 0,0 m -0.235,-4.199 -0.049,-0.215 c -0.201,-0.084 -0.362,-0.142 -0.484,-0.173 -0.119,-0.033 -0.223,-0.05 -0.307,-0.05 -0.176,0 -0.309,0.047 -0.397,0.137 -0.087,0.091 -0.13,0.203 -0.13,0.337 0,0.051 0.003,0.103 0.013,0.157 0.009,0.054 0.023,0.124 0.043,0.208 l 0.345,1.396 c 0.019,0.078 0.035,0.159 0.052,0.247 0.015,0.087 0.025,0.162 0.025,0.223 0,0.122 -0.021,0.205 -0.062,0.245 -0.041,0.041 -0.122,0.062 -0.247,0.062 -0.048,0 -0.111,-0.009 -0.192,-0.027 -0.079,-0.016 -0.14,-0.032 -0.181,-0.045 l 0.049,0.219 c 0.172,0.08 0.326,0.14 0.463,0.178 0.136,0.039 0.244,0.057 0.323,0.057 0.181,0 0.311,-0.043 0.392,-0.129 0.082,-0.084 0.122,-0.199 0.122,-0.343 0,-0.04 -0.003,-0.093 -0.014,-0.161 -0.007,-0.068 -0.021,-0.135 -0.039,-0.205 L -0.857,-3.476 C -0.88,-3.56 -0.898,-3.644 -0.915,-3.727 -0.93,-3.809 -0.939,-3.875 -0.939,-3.928 c 0,-0.125 0.027,-0.21 0.083,-0.257 0.055,-0.046 0.144,-0.068 0.268,-0.068 0.041,0 0.1,0.004 0.177,0.016 0.077,0.01 0.136,0.023 0.176,0.038"
             inkscape:connector-curvature="0" />
        </g>
        <g
           transform="matrix(4.1927001,0,0,-4.1927001,320.7349,491.00829)"
           id="g4346">
          <path
             id="path4348"
             style="fill:#0d1b29;fill-opacity:1;fill-rule:nonzero;stroke:none"
             d="m 0,0 c -0.221,0.238 -0.526,0.357 -0.916,0.357 -0.283,0 -0.545,-0.059 -0.787,-0.176 -0.242,-0.118 -0.446,-0.272 -0.61,-0.463 -0.162,-0.191 -0.292,-0.414 -0.388,-0.667 -0.095,-0.251 -0.144,-0.524 -0.144,-0.816 0,-0.398 0.114,-0.715 0.339,-0.95 0.228,-0.234 0.523,-0.352 0.886,-0.352 0.314,0 0.589,0.06 0.828,0.182 0.238,0.123 0.439,0.285 0.609,0.486 0.167,0.196 0.294,0.424 0.381,0.683 0.088,0.258 0.131,0.517 0.131,0.778 C 0.329,-0.552 0.22,-0.239 0,0 m -0.418,-1.545 c -0.05,-0.239 -0.123,-0.451 -0.216,-0.636 -0.095,-0.189 -0.217,-0.345 -0.367,-0.468 -0.151,-0.123 -0.325,-0.184 -0.518,-0.184 -0.219,0 -0.384,0.08 -0.492,0.242 -0.107,0.162 -0.162,0.399 -0.162,0.714 0,0.197 0.023,0.414 0.064,0.648 0.041,0.233 0.107,0.446 0.195,0.636 0.116,0.253 0.255,0.435 0.414,0.547 0.162,0.113 0.333,0.169 0.515,0.169 0.207,0 0.366,-0.078 0.478,-0.235 0.111,-0.156 0.164,-0.389 0.164,-0.701 0,-0.251 -0.023,-0.495 -0.075,-0.732"
             inkscape:connector-curvature="0" />
        </g>
        <g
           transform="matrix(4.1927001,0,0,-4.1927001,338.12834,501.77263)"
           id="g4350">
          <path
             id="path4352"
             style="fill:#0d1b29;fill-opacity:1;fill-rule:nonzero;stroke:none"
             d="m 0,0 -0.05,-0.218 c -0.2,-0.081 -0.355,-0.141 -0.466,-0.179 -0.111,-0.038 -0.223,-0.056 -0.337,-0.056 -0.177,0 -0.311,0.046 -0.398,0.136 -0.09,0.09 -0.135,0.205 -0.135,0.338 0,0.048 0.005,0.101 0.013,0.159 0.009,0.059 0.025,0.127 0.042,0.206 l 0.328,1.229 c 0.023,0.094 0.043,0.18 0.057,0.257 0.013,0.076 0.023,0.139 0.023,0.183 0,0.148 -0.037,0.265 -0.106,0.351 -0.069,0.085 -0.172,0.128 -0.306,0.128 -0.132,0 -0.28,-0.044 -0.443,-0.132 C -1.942,2.313 -2.097,2.184 -2.241,2.016 l -0.558,-2.414 -0.619,0 0.494,2.129 c 0.011,0.053 0.026,0.129 0.046,0.228 0.022,0.101 0.032,0.181 0.032,0.243 0,0.121 -0.021,0.204 -0.063,0.246 C -2.951,2.49 -3.034,2.511 -3.16,2.511 -3.208,2.511 -3.27,2.5 -3.344,2.484 -3.42,2.465 -3.477,2.453 -3.519,2.438 l 0.048,0.215 c 0.174,0.079 0.327,0.137 0.459,0.176 0.132,0.036 0.246,0.057 0.341,0.057 0.175,0 0.299,-0.048 0.374,-0.142 C -2.22,2.65 -2.181,2.52 -2.178,2.353 l 0.02,0 c 0.241,0.194 0.447,0.339 0.622,0.433 0.174,0.091 0.372,0.138 0.594,0.138 0.21,0 0.375,-0.06 0.492,-0.18 0.117,-0.123 0.176,-0.281 0.176,-0.479 0,-0.038 -0.007,-0.109 -0.017,-0.21 C -0.304,1.956 -0.323,1.855 -0.35,1.757 L -0.625,0.704 C -0.645,0.635 -0.664,0.554 -0.683,0.462 -0.701,0.374 -0.71,0.302 -0.71,0.25 c 0,-0.123 0.026,-0.209 0.083,-0.253 0.054,-0.045 0.143,-0.067 0.269,-0.067 0.042,0 0.101,0.007 0.179,0.022 C -0.101,-0.032 -0.042,-0.016 0,0"
             inkscape:connector-curvature="0" />
        </g>
        <g
           transform="matrix(4.1927001,0,0,-4.1927001,343.92181,503.86898)"
           id="g4354">
          <path
             id="path4356"
             style="fill:#0d1b29;fill-opacity:1;fill-rule:nonzero;stroke:none"
             d="m 0,0 c -0.324,0 -0.594,0.057 -0.811,0.172 -0.215,0.115 -0.322,0.265 -0.322,0.452 0,0.087 0.03,0.169 0.095,0.247 0.063,0.075 0.14,0.114 0.234,0.114 0.086,0 0.157,-0.02 0.211,-0.059 0.053,-0.042 0.094,-0.09 0.126,-0.144 0.032,-0.057 0.062,-0.124 0.087,-0.203 0.026,-0.079 0.045,-0.143 0.063,-0.195 0.033,-0.037 0.079,-0.072 0.138,-0.102 0.057,-0.031 0.141,-0.048 0.25,-0.048 0.236,0 0.416,0.06 0.537,0.179 0.121,0.119 0.183,0.278 0.183,0.481 0,0.15 -0.058,0.269 -0.174,0.358 C 0.505,1.34 0.334,1.423 0.109,1.498 0.029,1.524 -0.067,1.563 -0.177,1.619 -0.288,1.672 -0.375,1.729 -0.44,1.791 -0.52,1.862 -0.582,1.945 -0.631,2.042 -0.68,2.139 -0.704,2.253 -0.704,2.385 c 0,0.282 0.127,0.526 0.377,0.731 0.25,0.206 0.56,0.308 0.925,0.308 0.086,0 0.177,-0.003 0.277,-0.013 C 0.974,3.403 1.081,3.378 1.2,3.34 1.304,3.304 1.391,3.252 1.463,3.183 1.536,3.113 1.573,3.023 1.573,2.914 1.573,2.823 1.542,2.742 1.481,2.669 1.421,2.594 1.341,2.556 1.242,2.556 1.162,2.556 1.095,2.575 1.041,2.609 0.987,2.645 0.945,2.691 0.91,2.752 0.875,2.811 0.846,2.875 0.823,2.942 0.801,3.012 0.777,3.077 0.751,3.145 0.71,3.161 0.673,3.174 0.639,3.181 0.606,3.187 0.562,3.19 0.507,3.19 0.292,3.19 0.129,3.133 0.018,3.017 -0.094,2.902 -0.148,2.765 -0.148,2.606 -0.148,2.453 -0.099,2.337 0.002,2.26 0.102,2.181 0.267,2.099 0.499,2.016 0.797,1.908 1.015,1.785 1.151,1.646 1.285,1.508 1.353,1.337 1.353,1.132 1.353,0.797 1.226,0.524 0.968,0.314 0.713,0.105 0.389,0 0,0"
             inkscape:connector-curvature="0" />
        </g>
        <g
           transform="matrix(4.1927001,0,0,-4.1927001,366.16492,501.77263)"
           id="g4358">
          <path
             id="path4360"
             style="fill:#0d1b29;fill-opacity:1;fill-rule:nonzero;stroke:none"
             d="m 0,0 -0.052,-0.218 c -0.2,-0.081 -0.355,-0.141 -0.465,-0.179 -0.11,-0.038 -0.222,-0.056 -0.336,-0.056 -0.177,0 -0.31,0.046 -0.397,0.136 -0.089,0.09 -0.133,0.205 -0.133,0.338 0,0.048 0.004,0.101 0.012,0.159 0.01,0.059 0.023,0.127 0.044,0.206 l 0.321,1.229 c 0.024,0.094 0.045,0.18 0.057,0.257 0.015,0.076 0.022,0.139 0.022,0.183 0,0.148 -0.034,0.265 -0.103,0.351 C -1.1,2.491 -1.201,2.534 -1.335,2.534 -1.473,2.534 -1.62,2.489 -1.78,2.398 -1.94,2.307 -2.091,2.183 -2.234,2.02 l -0.559,-2.418 -0.618,0 0.978,4.235 c 0.011,0.051 0.021,0.093 0.029,0.127 0.007,0.036 0.011,0.073 0.011,0.113 0,0.079 -0.014,0.139 -0.04,0.182 -0.026,0.042 -0.064,0.074 -0.112,0.097 -0.04,0.021 -0.099,0.033 -0.171,0.039 -0.075,0.007 -0.146,0.015 -0.218,0.023 l 0.046,0.204 1.227,0.069 0.033,-0.047 -0.524,-2.272 0.012,0 c 0.223,0.182 0.424,0.321 0.6,0.414 0.175,0.092 0.376,0.138 0.6,0.138 0.21,0 0.371,-0.06 0.489,-0.18 0.117,-0.123 0.175,-0.281 0.175,-0.479 0,-0.038 -0.005,-0.109 -0.018,-0.21 -0.012,-0.099 -0.03,-0.2 -0.056,-0.298 L -0.627,0.704 C -0.645,0.635 -0.662,0.554 -0.683,0.462 -0.703,0.374 -0.714,0.302 -0.714,0.25 c 0,-0.123 0.03,-0.209 0.083,-0.253 0.057,-0.045 0.146,-0.067 0.271,-0.067 0.042,0 0.101,0.007 0.18,0.022 C -0.103,-0.032 -0.044,-0.016 0,0"
             inkscape:connector-curvature="0" />
        </g>
        <g
           transform="matrix(4.1927001,0,0,-4.1927001,375.56958,484.29954)"
           id="g4362">
          <path
             id="path4364"
             style="fill:#0d1b29;fill-opacity:1;fill-rule:nonzero;stroke:none"
             d="m 0,0 c 0,-0.125 -0.041,-0.234 -0.123,-0.328 -0.081,-0.093 -0.185,-0.14 -0.306,-0.14 -0.114,0 -0.21,0.044 -0.292,0.134 -0.081,0.087 -0.122,0.191 -0.122,0.305 0,0.12 0.041,0.227 0.122,0.317 0.082,0.089 0.178,0.135 0.292,0.135 0.126,0 0.231,-0.042 0.309,-0.128 C -0.04,0.212 0,0.113 0,0 m -0.234,-4.199 -0.05,-0.215 c -0.202,-0.084 -0.362,-0.142 -0.484,-0.173 -0.12,-0.033 -0.222,-0.05 -0.308,-0.05 -0.174,0 -0.308,0.047 -0.397,0.137 -0.087,0.091 -0.13,0.203 -0.13,0.337 0,0.051 0.004,0.103 0.014,0.157 0.007,0.054 0.022,0.124 0.042,0.208 l 0.347,1.396 c 0.017,0.078 0.034,0.159 0.051,0.247 0.017,0.087 0.025,0.162 0.025,0.223 0,0.122 -0.021,0.205 -0.061,0.245 -0.039,0.041 -0.124,0.062 -0.246,0.062 -0.048,0 -0.113,-0.009 -0.193,-0.027 -0.079,-0.016 -0.141,-0.032 -0.183,-0.045 l 0.052,0.219 c 0.17,0.08 0.325,0.14 0.462,0.178 0.136,0.039 0.243,0.057 0.321,0.057 0.181,0 0.313,-0.043 0.392,-0.129 0.083,-0.084 0.122,-0.199 0.122,-0.343 0,-0.04 -0.003,-0.093 -0.011,-0.161 -0.009,-0.068 -0.022,-0.135 -0.04,-0.205 L -0.856,-3.476 C -0.879,-3.56 -0.899,-3.644 -0.915,-3.727 -0.931,-3.809 -0.94,-3.875 -0.94,-3.928 c 0,-0.125 0.028,-0.21 0.085,-0.257 0.054,-0.046 0.145,-0.068 0.268,-0.068 0.038,0 0.098,0.004 0.176,0.016 0.077,0.01 0.136,0.023 0.177,0.038"
             inkscape:connector-curvature="0" />
        </g>
        <g
           transform="matrix(4.1927001,0,0,-4.1927001,389.60336,490.93658)"
           id="g4366">
          <path
             id="path4368"
             style="fill:#0d1b29;fill-opacity:1;fill-rule:nonzero;stroke:none"
             d="m 0,0 c -0.186,0.227 -0.443,0.34 -0.779,0.34 -0.168,0 -0.337,-0.045 -0.506,-0.134 -0.17,-0.091 -0.33,-0.205 -0.479,-0.343 l -0.026,0 C -1.811,0 -1.859,0.108 -1.938,0.185 -2.017,0.262 -2.136,0.302 -2.288,0.302 -2.384,0.302 -2.497,0.281 -2.632,0.24 -2.767,0.201 -2.916,0.142 -3.083,0.067 l -0.05,-0.213 c 0.041,0.013 0.099,0.026 0.173,0.045 0.074,0.017 0.135,0.027 0.185,0.027 0.127,0 0.209,-0.021 0.246,-0.062 0.039,-0.042 0.059,-0.125 0.059,-0.248 0,-0.062 -0.009,-0.135 -0.025,-0.218 -0.013,-0.085 -0.031,-0.169 -0.047,-0.252 l -0.686,-3.029 c -0.017,-0.079 -0.045,-0.145 -0.085,-0.199 -0.041,-0.055 -0.094,-0.091 -0.163,-0.111 -0.056,-0.015 -0.114,-0.026 -0.176,-0.032 -0.06,-0.007 -0.125,-0.012 -0.197,-0.017 l -0.047,-0.204 1.818,0 0.048,0.204 c -0.055,0.005 -0.117,0.011 -0.185,0.02 -0.068,0.009 -0.13,0.022 -0.183,0.04 -0.056,0.015 -0.104,0.041 -0.148,0.075 -0.043,0.036 -0.064,0.083 -0.064,0.143 0,0.028 0.005,0.066 0.011,0.116 0.008,0.048 0.019,0.098 0.033,0.155 l 0.192,0.865 c 0.092,-0.068 0.2,-0.126 0.321,-0.172 0.119,-0.046 0.274,-0.069 0.464,-0.069 0.232,0 0.462,0.052 0.682,0.154 0.223,0.104 0.428,0.262 0.619,0.475 0.172,0.194 0.307,0.42 0.411,0.686 0.103,0.263 0.153,0.541 0.153,0.837 C 0.276,-0.533 0.184,-0.227 0,0 m -1.132,-2.682 c -0.152,-0.104 -0.315,-0.152 -0.487,-0.152 -0.169,0 -0.313,0.053 -0.433,0.163 -0.119,0.108 -0.185,0.225 -0.202,0.35 l 0.418,1.864 c 0.177,0.17 0.324,0.284 0.446,0.346 0.124,0.061 0.234,0.091 0.334,0.091 0.137,0 0.247,-0.022 0.33,-0.069 0.085,-0.048 0.151,-0.115 0.199,-0.2 0.046,-0.076 0.079,-0.173 0.1,-0.291 0.021,-0.118 0.031,-0.234 0.031,-0.35 0,-0.257 -0.031,-0.499 -0.09,-0.729 -0.061,-0.229 -0.147,-0.434 -0.259,-0.613 -0.107,-0.173 -0.236,-0.311 -0.387,-0.41"
             inkscape:connector-curvature="0" />
        </g>
        <g
           transform="matrix(4.1927001,0,0,-4.1927001,404.64006,503.86898)"
           id="g4370">
          <path
             id="path4372"
             style="fill:#0d1b29;fill-opacity:1;fill-rule:nonzero;stroke:none"
             d="m 0,0 c -0.385,0 -0.689,0.112 -0.911,0.336 -0.224,0.224 -0.336,0.544 -0.336,0.959 0,0.274 0.043,0.538 0.128,0.79 0.083,0.252 0.202,0.476 0.353,0.673 0.152,0.196 0.344,0.356 0.576,0.479 C 0.041,3.362 0.3,3.424 0.583,3.424 0.896,3.424 1.136,3.359 1.3,3.227 1.465,3.093 1.546,2.928 1.546,2.727 1.546,2.575 1.51,2.442 1.439,2.328 1.368,2.215 1.261,2.158 1.12,2.158 1,2.158 0.912,2.186 0.852,2.248 0.793,2.305 0.765,2.37 0.765,2.442 c 0,0.071 0.023,0.165 0.069,0.287 0.045,0.12 0.081,0.217 0.11,0.291 C 0.918,3.079 0.865,3.123 0.782,3.15 0.699,3.177 0.612,3.19 0.523,3.19 0.224,3.19 -0.033,3.016 -0.25,2.669 -0.464,2.319 -0.573,1.892 -0.573,1.386 c 0,-0.312 0.07,-0.56 0.21,-0.744 0.138,-0.183 0.328,-0.276 0.565,-0.276 0.214,0 0.404,0.059 0.57,0.171 0.166,0.113 0.324,0.274 0.476,0.48 L 1.436,0.878 C 1.284,0.64 1.078,0.436 0.819,0.261 0.559,0.086 0.285,0 0,0"
             inkscape:connector-curvature="0" />
        </g>
        <g
           transform="matrix(4.1927001,0,0,-4.1927001,424.14997,491.00829)"
           id="g4374">
          <path
             id="path4376"
             style="fill:#0d1b29;fill-opacity:1;fill-rule:nonzero;stroke:none"
             d="M 0,0 C -0.223,0.238 -0.526,0.357 -0.917,0.357 -1.2,0.357 -1.461,0.298 -1.705,0.181 -1.946,0.063 -2.149,-0.091 -2.313,-0.282 -2.475,-0.473 -2.605,-0.696 -2.701,-0.949 -2.797,-1.2 -2.846,-1.473 -2.846,-1.765 c 0,-0.398 0.114,-0.715 0.342,-0.95 0.225,-0.234 0.52,-0.352 0.884,-0.352 0.314,0 0.589,0.06 0.827,0.182 0.238,0.123 0.44,0.285 0.61,0.486 0.166,0.196 0.292,0.424 0.38,0.683 0.09,0.258 0.132,0.517 0.132,0.778 C 0.329,-0.552 0.22,-0.239 0,0 m -0.418,-1.545 c -0.051,-0.239 -0.124,-0.451 -0.218,-0.636 -0.093,-0.189 -0.216,-0.345 -0.368,-0.468 -0.149,-0.123 -0.324,-0.184 -0.517,-0.184 -0.219,0 -0.382,0.08 -0.49,0.242 -0.108,0.162 -0.162,0.399 -0.162,0.714 0,0.197 0.02,0.414 0.063,0.648 0.04,0.233 0.106,0.446 0.195,0.636 0.116,0.253 0.254,0.435 0.415,0.547 0.16,0.113 0.333,0.169 0.514,0.169 0.208,0 0.367,-0.078 0.478,-0.235 0.11,-0.156 0.165,-0.389 0.165,-0.701 0,-0.251 -0.027,-0.495 -0.075,-0.732"
             inkscape:connector-curvature="0" />
        </g>
        <g
           transform="matrix(4.1927001,0,0,-4.1927001,449.70571,501.84012)"
           id="g4378">
          <path
             id="path4380"
             style="fill:#0d1b29;fill-opacity:1;fill-rule:nonzero;stroke:none"
             d="m 0,0 -0.051,-0.215 c -0.203,-0.083 -0.367,-0.14 -0.49,-0.173 -0.12,-0.033 -0.225,-0.049 -0.312,-0.049 -0.177,0 -0.311,0.046 -0.399,0.136 -0.089,0.091 -0.134,0.205 -0.134,0.338 0,0.048 0.005,0.101 0.013,0.159 0.01,0.059 0.024,0.127 0.044,0.206 l 0.325,1.229 c 0.025,0.094 0.044,0.18 0.058,0.257 0.014,0.076 0.021,0.139 0.021,0.183 0,0.148 -0.033,0.265 -0.094,0.351 C -1.081,2.507 -1.181,2.55 -1.317,2.55 -1.461,2.55 -1.604,2.515 -1.741,2.447 -1.882,2.376 -2.04,2.248 -2.213,2.058 l -0.577,-2.44 -0.615,0 0.521,2.202 c 0.009,0.049 0.02,0.097 0.03,0.152 0.01,0.053 0.014,0.093 0.014,0.119 0,0.143 -0.035,0.256 -0.105,0.337 C -3.015,2.509 -3.119,2.55 -3.256,2.55 -3.38,2.55 -3.518,2.519 -3.667,2.455 -3.816,2.394 -3.991,2.253 -4.187,2.036 l -0.561,-2.418 -0.618,0 0.495,2.133 c 0.017,0.077 0.034,0.16 0.051,0.247 0.015,0.086 0.023,0.163 0.023,0.223 0,0.129 -0.02,0.212 -0.062,0.253 -0.042,0.039 -0.123,0.06 -0.245,0.06 -0.048,0 -0.112,-0.009 -0.186,-0.027 C -5.367,2.49 -5.424,2.476 -5.467,2.464 l 0.051,0.211 c 0.171,0.077 0.324,0.135 0.456,0.171 0.132,0.037 0.247,0.056 0.342,0.056 0.176,0 0.301,-0.048 0.377,-0.142 0.072,-0.095 0.112,-0.226 0.116,-0.388 l 0.021,0 c 0.258,0.203 0.469,0.349 0.636,0.438 0.166,0.087 0.364,0.13 0.593,0.13 0.195,0 0.352,-0.055 0.473,-0.167 0.122,-0.114 0.189,-0.256 0.205,-0.429 l 0.014,0 c 0.231,0.196 0.44,0.344 0.622,0.445 0.182,0.101 0.394,0.151 0.636,0.151 0.209,0 0.37,-0.06 0.482,-0.18 0.113,-0.123 0.169,-0.281 0.169,-0.479 0,-0.038 -0.008,-0.109 -0.018,-0.21 C -0.304,1.972 -0.324,1.871 -0.35,1.773 L -0.626,0.72 C -0.646,0.651 -0.663,0.57 -0.683,0.479 -0.699,0.39 -0.708,0.318 -0.708,0.267 c 0,-0.123 0.025,-0.21 0.079,-0.254 0.053,-0.045 0.14,-0.067 0.266,-0.067 0.043,0 0.103,0.006 0.181,0.017 0.078,0.01 0.14,0.023 0.182,0.037"
             inkscape:connector-curvature="0" />
        </g>
        <g
           transform="matrix(4.1927001,0,0,-4.1927001,464.73825,490.93658)"
           id="g4382">
          <path
             id="path4384"
             style="fill:#0d1b29;fill-opacity:1;fill-rule:nonzero;stroke:none"
             d="m 0,0 c -0.184,0.227 -0.442,0.34 -0.776,0.34 -0.169,0 -0.338,-0.045 -0.507,-0.134 -0.17,-0.091 -0.33,-0.205 -0.478,-0.343 l -0.027,0 C -1.807,0 -1.857,0.108 -1.936,0.185 -2.016,0.262 -2.131,0.302 -2.286,0.302 -2.38,0.302 -2.495,0.281 -2.628,0.24 -2.763,0.201 -2.914,0.142 -3.079,0.067 L -3.13,-0.146 c 0.041,0.013 0.099,0.026 0.172,0.045 0.075,0.017 0.137,0.027 0.186,0.027 0.126,0 0.208,-0.021 0.247,-0.062 0.039,-0.042 0.058,-0.125 0.058,-0.248 0,-0.062 -0.008,-0.135 -0.023,-0.218 -0.016,-0.085 -0.031,-0.169 -0.05,-0.252 L -3.224,-3.883 C -3.242,-3.962 -3.27,-4.028 -3.311,-4.082 -3.352,-4.137 -3.405,-4.173 -3.474,-4.193 -3.528,-4.208 -3.585,-4.219 -3.647,-4.225 -3.71,-4.232 -3.776,-4.237 -3.846,-4.242 l -0.045,-0.204 1.818,0 0.045,0.204 c -0.055,0.005 -0.117,0.011 -0.182,0.02 -0.07,0.009 -0.13,0.022 -0.187,0.04 -0.054,0.015 -0.102,0.041 -0.146,0.075 -0.042,0.036 -0.065,0.083 -0.065,0.143 0,0.028 0.004,0.066 0.013,0.116 0.008,0.048 0.018,0.098 0.031,0.155 l 0.193,0.865 c 0.093,-0.068 0.2,-0.126 0.32,-0.172 0.12,-0.046 0.276,-0.069 0.464,-0.069 0.234,0 0.463,0.052 0.684,0.154 0.222,0.104 0.427,0.262 0.619,0.475 0.169,0.194 0.305,0.42 0.41,0.686 0.102,0.263 0.153,0.541 0.153,0.837 C 0.279,-0.533 0.186,-0.227 0,0 m -1.129,-2.682 c -0.152,-0.104 -0.313,-0.152 -0.487,-0.152 -0.169,0 -0.314,0.053 -0.434,0.163 -0.117,0.108 -0.184,0.225 -0.201,0.35 l 0.418,1.864 c 0.176,0.17 0.324,0.284 0.446,0.346 0.122,0.061 0.234,0.091 0.335,0.091 0.136,0 0.246,-0.022 0.329,-0.069 0.083,-0.048 0.15,-0.115 0.197,-0.2 0.047,-0.076 0.081,-0.173 0.102,-0.291 0.02,-0.118 0.031,-0.234 0.031,-0.35 0,-0.257 -0.03,-0.499 -0.091,-0.729 -0.06,-0.229 -0.145,-0.434 -0.258,-0.613 -0.108,-0.173 -0.237,-0.311 -0.387,-0.41"
             inkscape:connector-curvature="0" />
        </g>
        <g
           transform="matrix(4.1927001,0,0,-4.1927001,477.07274,503.09122)"
           id="g4386">
          <path
             id="path4388"
             style="fill:#0d1b29;fill-opacity:1;fill-rule:nonzero;stroke:none"
             d="m 0,0 c 0.093,-0.093 0.217,-0.138 0.375,-0.138 0.137,0 0.252,0.018 0.348,0.054 0.096,0.038 0.243,0.097 0.44,0.179 L 1.21,0.314 C 1.169,0.297 1.112,0.282 1.038,0.266 0.961,0.251 0.903,0.245 0.861,0.245 0.74,0.245 0.652,0.265 0.6,0.309 0.547,0.354 0.521,0.438 0.521,0.562 c 0,0.047 0.011,0.119 0.028,0.215 0.019,0.099 0.036,0.181 0.056,0.249 L 1.092,3.144 1.054,3.192 0.447,3.039 C 0.366,3.089 0.256,3.136 0.114,3.178 -0.027,3.219 -0.176,3.239 -0.33,3.239 -0.575,3.239 -0.813,3.18 -1.045,3.06 -1.278,2.94 -1.479,2.781 -1.646,2.585 -1.823,2.38 -1.962,2.149 -2.063,1.892 -2.164,1.633 -2.214,1.369 -2.214,1.096 c 0,-0.397 0.089,-0.709 0.272,-0.938 0.181,-0.229 0.432,-0.344 0.749,-0.344 0.121,0 0.23,0.021 0.331,0.063 0.1,0.04 0.195,0.089 0.28,0.146 0.092,0.055 0.17,0.115 0.237,0.175 0.067,0.063 0.123,0.114 0.173,0.155 l 0.022,0 C -0.14,0.21 -0.092,0.092 0,0 M -0.1,0.651 C -0.269,0.477 -0.424,0.354 -0.558,0.285 -0.694,0.217 -0.822,0.181 -0.947,0.181 c -0.121,0 -0.22,0.023 -0.299,0.07 -0.082,0.046 -0.142,0.112 -0.183,0.195 -0.046,0.086 -0.074,0.18 -0.089,0.285 -0.017,0.104 -0.024,0.222 -0.024,0.356 0,0.245 0.036,0.487 0.109,0.724 0.072,0.238 0.166,0.44 0.279,0.609 0.123,0.178 0.259,0.32 0.41,0.427 0.15,0.105 0.307,0.157 0.468,0.157 0.116,0 0.214,-0.016 0.291,-0.049 C 0.089,2.921 0.152,2.879 0.194,2.823 0.244,2.766 0.275,2.704 0.29,2.638 0.306,2.571 0.313,2.502 0.313,2.431 L -0.1,0.651 z"
             inkscape:connector-curvature="0" />
        </g>
        <g
           transform="matrix(4.1927001,0,0,-4.1927001,498.83453,501.77263)"
           id="g4390">
          <path
             id="path4392"
             style="fill:#0d1b29;fill-opacity:1;fill-rule:nonzero;stroke:none"
             d="m 0,0 -0.049,-0.218 c -0.2,-0.081 -0.355,-0.141 -0.467,-0.179 -0.11,-0.038 -0.222,-0.056 -0.336,-0.056 -0.178,0 -0.31,0.046 -0.399,0.136 -0.09,0.09 -0.133,0.205 -0.133,0.338 0,0.048 0.003,0.101 0.013,0.159 0.008,0.059 0.021,0.127 0.042,0.206 l 0.325,1.229 c 0.025,0.094 0.045,0.18 0.059,0.257 0.014,0.076 0.02,0.139 0.02,0.183 0,0.148 -0.033,0.265 -0.102,0.351 C -1.096,2.491 -1.2,2.534 -1.336,2.534 -1.466,2.534 -1.613,2.49 -1.777,2.402 -1.941,2.313 -2.096,2.184 -2.241,2.016 l -0.559,-2.414 -0.617,0 0.493,2.129 c 0.01,0.053 0.027,0.129 0.048,0.228 0.021,0.101 0.029,0.181 0.029,0.243 0,0.121 -0.02,0.204 -0.061,0.246 C -2.949,2.49 -3.033,2.511 -3.158,2.511 -3.207,2.511 -3.269,2.5 -3.342,2.484 -3.418,2.465 -3.476,2.453 -3.518,2.438 l 0.051,0.215 c 0.172,0.079 0.322,0.137 0.455,0.176 0.133,0.036 0.247,0.057 0.343,0.057 0.174,0 0.299,-0.048 0.373,-0.142 0.074,-0.094 0.116,-0.224 0.12,-0.391 l 0.019,0 c 0.241,0.194 0.448,0.339 0.622,0.433 0.174,0.091 0.373,0.138 0.596,0.138 0.209,0 0.372,-0.06 0.49,-0.18 0.116,-0.123 0.177,-0.281 0.177,-0.479 0,-0.038 -0.006,-0.109 -0.02,-0.21 -0.011,-0.099 -0.031,-0.2 -0.057,-0.298 L -0.625,0.704 C -0.645,0.635 -0.664,0.554 -0.682,0.462 -0.7,0.374 -0.71,0.302 -0.71,0.25 c 0,-0.123 0.028,-0.209 0.084,-0.253 0.053,-0.045 0.143,-0.067 0.267,-0.067 0.043,0 0.104,0.007 0.181,0.022 C -0.102,-0.032 -0.041,-0.016 0,0"
             inkscape:connector-curvature="0" />
        </g>
        <g
           transform="matrix(4.1927001,0,0,-4.1927001,509.4802,501.43259)"
           id="g4394">
          <path
             id="path4396"
             style="fill:#0d1b29;fill-opacity:1;fill-rule:nonzero;stroke:none"
             d="m 0,0 -0.023,0 c -0.199,-0.169 -0.388,-0.301 -0.57,-0.398 -0.182,-0.096 -0.387,-0.145 -0.618,-0.145 -0.209,0 -0.376,0.062 -0.497,0.183 -0.123,0.121 -0.183,0.279 -0.183,0.476 0,0.053 0.003,0.115 0.012,0.188 0.009,0.072 0.031,0.179 0.062,0.321 l 0.261,1.023 c 0.024,0.098 0.043,0.184 0.055,0.257 0.013,0.074 0.02,0.144 0.02,0.211 0,0.123 -0.02,0.205 -0.061,0.243 C -1.583,2.403 -1.664,2.421 -1.79,2.421 -1.838,2.421 -1.9,2.413 -1.975,2.394 -2.049,2.378 -2.108,2.362 -2.149,2.351 L -2.1,2.566 c 0.174,0.079 0.325,0.139 0.457,0.179 0.131,0.039 0.236,0.06 0.315,0.06 0.178,0 0.309,-0.039 0.394,-0.117 0.084,-0.08 0.127,-0.2 0.127,-0.356 0,-0.041 -0.004,-0.093 -0.012,-0.162 C -0.828,2.103 -0.84,2.035 -0.858,1.966 L -1.16,0.766 C -1.183,0.675 -1.203,0.588 -1.219,0.507 c -0.012,-0.079 -0.02,-0.14 -0.02,-0.182 0,-0.147 0.033,-0.263 0.105,-0.348 0.071,-0.085 0.172,-0.128 0.309,-0.128 0.158,0 0.311,0.038 0.462,0.118 0.15,0.079 0.292,0.187 0.424,0.325 L 0.612,2.75 1.188,2.789 1.229,2.74 0.655,0.164 C 0.571,-0.215 0.464,-0.536 0.336,-0.804 0.206,-1.07 0.054,-1.287 -0.118,-1.452 -0.3,-1.624 -0.496,-1.75 -0.707,-1.826 c -0.21,-0.077 -0.45,-0.116 -0.719,-0.116 -0.187,0 -0.334,0.012 -0.444,0.04 -0.109,0.026 -0.195,0.063 -0.261,0.108 -0.062,0.044 -0.104,0.093 -0.127,0.149 -0.022,0.055 -0.033,0.11 -0.033,0.166 0,0.093 0.029,0.177 0.085,0.25 0.057,0.072 0.14,0.108 0.246,0.108 0.081,0 0.15,-0.023 0.207,-0.069 0.057,-0.046 0.104,-0.097 0.137,-0.152 0.039,-0.061 0.075,-0.127 0.108,-0.202 0.032,-0.075 0.059,-0.135 0.08,-0.18 l 0.078,0 c 0.124,0 0.256,0.033 0.394,0.093 0.139,0.063 0.265,0.158 0.382,0.287 0.124,0.142 0.235,0.323 0.335,0.545 0.1,0.222 0.178,0.488 0.239,0.799"
             inkscape:connector-curvature="0" />
        </g>
        <g
           transform="matrix(4.1927001,0,0,-4.1927001,166.67162,425.44409)"
           id="g4398">
          <path
             id="path4400"
             style="fill:#0d1b29;fill-opacity:1;fill-rule:nonzero;stroke:none"
             d="M 0,0 -1.291,3.746 -2.581,0 l -1.137,0 -2.193,6.478 1.623,0 1.166,-3.495 1.208,3.495 1.247,0 1.207,-3.495 1.166,3.495 1.624,0 L 1.151,0 0,0 z"
             inkscape:connector-curvature="0" />
        </g>
        <g
           transform="matrix(4.1927001,0,0,-4.1927001,184.94928,403.49403)"
           id="g4402">
          <path
             id="path4404"
             style="fill:#0d1b29;fill-opacity:1;fill-rule:nonzero;stroke:none"
             d="m 0,0 4.942,0 0,-1.245 -3.654,0 0,-0.607 2.759,0 0,-1.231 -2.759,0 0,-0.919 3.857,0 0,-1.233 L 0,-5.235 0,0 z"
             inkscape:connector-curvature="0" />
        </g>
        <g
           transform="matrix(4.1927001,0,0,-4.1927001,211.11887,422.1545)"
           id="g4406">
          <path
             id="path4408"
             style="fill:#0d1b29;fill-opacity:1;fill-rule:nonzero;stroke:none"
             d="M 0,0 0.65,1.11 C 1.525,0.515 2.276,0.302 2.882,0.302 c 0.829,0 1.11,0.369 1.11,0.628 0,1.03 -3.688,-0.427 -3.688,2.029 0,1.008 0.94,1.615 2.208,1.615 0.863,0 1.792,-0.149 2.634,-0.475 L 4.522,3.043 C 3.548,3.462 3.074,3.488 2.551,3.462 1.822,3.428 1.603,3.071 1.603,2.959 1.603,2.61 2.067,2.555 2.818,2.555 4.365,2.555 5.313,2.119 5.313,0.885 5.313,-0.158 4.35,-0.931 2.96,-0.931 2.018,-0.931 1.044,-0.661 0,0"
             inkscape:connector-curvature="0" />
        </g>
        <g
           transform="matrix(4.1927001,0,0,-4.1927001,250.73234,425.44409)"
           id="g4410">
          <path
             id="path4412"
             style="fill:#0d1b29;fill-opacity:1;fill-rule:nonzero;stroke:none"
             d="m 0,0 -1.289,0 0,4.024 -1.973,0 0,1.211 5.234,0 0,-1.211 L 0,4.024 0,0 z"
             inkscape:connector-curvature="0" />
        </g>
        <g
           transform="matrix(4.1927001,0,0,-4.1927001,263.65049,403.49403)"
           id="g4414">
          <path
             id="path4416"
             style="fill:#0d1b29;fill-opacity:1;fill-rule:nonzero;stroke:none"
             d="m 0,0 4.944,0 0,-1.245 -3.653,0 0,-0.607 2.758,0 0,-1.231 -2.758,0 0,-0.919 3.855,0 0,-1.233 L 0,-5.235 0,0 z"
             inkscape:connector-curvature="0" />
        </g>
        <g
           transform="matrix(4.1927001,0,0,-4.1927001,309.13749,425.44409)"
           id="g4418">
          <path
             id="path4420"
             style="fill:#0d1b29;fill-opacity:1;fill-rule:nonzero;stroke:none"
             d="M 0,0 1.457,0 0.089,2.165 c 0.617,0.246 0.996,0.816 0.996,1.478 0,1.008 -0.738,1.58 -1.802,1.58 l -3.498,0 0,-5.223 1.289,0 0,2.041 1.604,0 L 0,0 z m -0.717,3.99 c 0.403,0 0.492,-0.146 0.492,-0.347 0,-0.214 -0.089,-0.359 -0.492,-0.359 l -2.209,0 0,0.706 2.209,0 z"
             inkscape:connector-curvature="0" />
        </g>
        <g
           transform="matrix(4.1927001,0,0,-4.1927001,325.94519,413.60307)"
           id="g4422">
          <path
             id="path4424"
             style="fill:#0d1b29;fill-opacity:1;fill-rule:nonzero;stroke:none"
             d="m 0,0 0,-2.824 -1.277,0 0,5.235 0.784,0 2.567,-2.837 0,2.837 1.279,0 0,-5.235 -0.784,0 L 0,0 z"
             inkscape:connector-curvature="0" />
        </g>
        <g
           transform="matrix(4.1927001,0,0,-4.1927001,368.25497,410.78809)"
           id="g4426">
          <path
             id="path4428"
             style="fill:#0d1b29;fill-opacity:1;fill-rule:nonzero;stroke:none"
             d="m 0,0 0,-3.496 -1.58,0 0,6.478 0.97,0 3.177,-3.509 0,3.509 1.581,0 0,-6.478 -0.971,0 L 0,0 z"
             inkscape:connector-curvature="0" />
        </g>
        <g
           transform="matrix(4.1927001,0,0,-4.1927001,410.16144,425.44409)"
           id="g4430">
          <path
             id="path4432"
             style="fill:#0d1b29;fill-opacity:1;fill-rule:nonzero;stroke:none"
             d="m 0,0 1.413,0 -2.692,5.235 -0.796,0 L -4.741,0 -3.341,0 -2.935,0.889 -0.442,0.886 0,0 z m -1.672,3.261 0.634,-1.255 -1.287,0 0.653,1.255 z"
             inkscape:connector-curvature="0" />
        </g>
        <g
           transform="matrix(4.1927001,0,0,-4.1927001,428.55773,425.44409)"
           id="g4434">
          <path
             id="path4436"
             style="fill:#0d1b29;fill-opacity:1;fill-rule:nonzero;stroke:none"
             d="m 0,0 -1.289,0 0,4.024 -1.972,0 0,1.211 5.234,0 0,-1.211 L 0,4.024 0,0 z"
             inkscape:connector-curvature="0" />
        </g>
        <path
           id="path4438"
           style="fill:#0d1b29;fill-opacity:1;fill-rule:nonzero;stroke:none"
           d="m 442.28255,403.45338 5.45051,0 0,22.03683 -5.45051,0 0,-22.03683 z"
           inkscape:connector-curvature="0" />
        <g
           transform="matrix(4.1927001,0,0,-4.1927001,467.03709,426.0583)"
           id="g4440">
          <path
             id="path4442"
             style="fill:#0d1b29;fill-opacity:1;fill-rule:nonzero;stroke:none"
             d="M 0,0 C 1.85,0 3.149,1.177 3.149,2.758 3.149,4.349 1.85,5.505 0,5.505 -1.839,5.505 -3.139,4.339 -3.139,2.758 -3.139,1.2 -1.839,0 0,0 M 0,4.271 C 1.165,4.271 1.838,3.565 1.838,2.758 1.838,1.951 1.176,1.244 0,1.244 c -1.156,0 -1.828,0.697 -1.828,1.514 0,0.818 0.672,1.513 1.828,1.513"
             inkscape:connector-curvature="0" />
        </g>
        <g
           transform="matrix(4.1927001,0,0,-4.1927001,491.17615,413.60307)"
           id="g4444">
          <path
             id="path4446"
             style="fill:#0d1b29;fill-opacity:1;fill-rule:nonzero;stroke:none"
             d="m 0,0 0,-2.824 -1.277,0 0,5.235 0.784,0 2.566,-2.837 0,2.837 1.279,0 0,-5.235 -0.786,0 L 0,0 z"
             inkscape:connector-curvature="0" />
        </g>
        <g
           transform="matrix(4.1927001,0,0,-4.1927001,539.05007,403.49403)"
           id="g4448">
          <path
             id="path4450"
             style="fill:#0d1b29;fill-opacity:1;fill-rule:nonzero;stroke:none"
             d="m 0,0 1.29,0 0,-4.002 3.101,0 0,-1.233 L 0,-5.235 0,0 z"
             inkscape:connector-curvature="0" />
        </g>
        <g
           transform="matrix(4.1927001,0,0,-4.1927001,529.1599,425.40508)"
           id="g4452">
          <path
             id="path4454"
             style="fill:#0d1b29;fill-opacity:1;fill-rule:nonzero;stroke:none"
             d="m 0,0 1.414,0 -2.692,5.233 -0.795,0 L -4.74,0 -3.34,0 -2.936,0.889 -0.441,0.885 0,0 z m -1.67,3.261 0.634,-1.256 -1.288,0 0.654,1.256 z"
             inkscape:connector-curvature="0" />
        </g>
        <g
           transform="matrix(4.1927001,0,0,-4.1927001,298.6658,450.35081)"
           id="g4456">
          <path
             id="path4458"
             style="fill:#7d7e82;fill-opacity:1;fill-rule:nonzero;stroke:none"
             d="m 0,0 0.439,0.746 c 0.587,-0.4 1.095,-0.543 1.501,-0.543 0.559,0 0.748,0.248 0.748,0.422 0,0.695 -2.484,-0.287 -2.484,1.367 0,0.679 0.634,1.087 1.488,1.087 0.581,0 1.207,-0.1 1.774,-0.317 L 3.045,2.048 C 2.389,2.331 2.07,2.349 1.718,2.331 1.226,2.308 1.079,2.068 1.079,1.992 1.079,1.758 1.392,1.721 1.897,1.721 2.939,1.721 3.578,1.426 3.578,0.596 3.578,-0.106 2.93,-0.627 1.993,-0.627 1.36,-0.627 0.703,-0.447 0,0"
             inkscape:connector-curvature="0" />
        </g>
        <path
           id="path4460"
           style="fill:#7d7e82;fill-opacity:1;fill-rule:nonzero;stroke:none"
           d="m 271.6145,433.83368 3.76505,0 0,18.95939 -3.76505,0 0,-18.95939 z"
           inkscape:connector-curvature="0" />
        <g
           transform="matrix(4.1927001,0,0,-4.1927001,284.98251,444.68607)"
           id="g4462">
          <path
             id="path4464"
             style="fill:#7d7e82;fill-opacity:1;fill-rule:nonzero;stroke:none"
             d="m 0,0 0,-1.918 -0.868,0 0,3.556 0.531,0 1.745,-1.927 0,1.927 0.868,0 0,-3.556 -0.535,0 L 0,0 z"
             inkscape:connector-curvature="0" />
        </g>
        <g
           transform="matrix(4.1927001,0,0,-4.1927001,318.13922,447.71779)"
           id="g4466">
          <path
             id="path4468"
             style="fill:#7d7e82;fill-opacity:1;fill-rule:nonzero;stroke:none"
             d="m 0,0 0,2.354 0.876,0 0,-2.224 c 0,-0.463 0.083,-0.587 0.884,-0.587 0.798,0 0.882,0.124 0.882,0.587 l 0,2.224 0.877,0 0,-2.354 C 3.519,-0.942 2.894,-1.294 1.75,-1.294 0.594,-1.294 0,-0.942 0,0"
             inkscape:connector-curvature="0" />
        </g>
        <g
           transform="matrix(4.1927001,0,0,-4.1927001,350.03057,452.72726)"
           id="g4470">
          <path
             id="path4472"
             style="fill:#7d7e82;fill-opacity:1;fill-rule:nonzero;stroke:none"
             d="M 0,0 0.992,0 0.062,1.47 C 0.481,1.638 0.74,2.025 0.74,2.475 0.74,3.16 0.236,3.548 -0.485,3.548 l -2.376,0 0,-3.548 0.876,0 0,1.386 1.088,0 L 0,0 z m -0.485,2.71 c 0.273,0 0.332,-0.099 0.332,-0.235 0,-0.146 -0.059,-0.244 -0.332,-0.244 l -1.5,0 0,0.479 1.5,0 z"
             inkscape:connector-curvature="0" />
        </g>
        <g
           transform="matrix(4.1927001,0,0,-4.1927001,380.73288,444.68607)"
           id="g4474">
          <path
             id="path4476"
             style="fill:#7d7e82;fill-opacity:1;fill-rule:nonzero;stroke:none"
             d="m 0,0 0,-1.918 -0.869,0 0,3.556 0.534,0 1.743,-1.927 0,1.927 0.869,0 0,-3.556 -0.533,0 L 0,0 z"
             inkscape:connector-curvature="0" />
        </g>
        <g
           transform="matrix(4.1927001,0,0,-4.1927001,394.24219,445.31873)"
           id="g4478">
          <path
             id="path4480"
             style="fill:#7d7e82;fill-opacity:1;fill-rule:nonzero;stroke:none"
             d="m 0,0 c 0,1.087 0.898,1.873 2.108,1.873 0.747,0 1.403,-0.297 1.896,-0.983 L 3.295,0.403 C 2.969,0.853 2.597,1.036 2.108,1.036 1.37,1.036 0.892,0.57 0.892,0.006 c 0,-0.562 0.478,-1.027 1.216,-1.027 0.51,0 0.869,0.19 1.272,0.762 L 4.081,-0.748 C 3.586,-1.531 2.917,-1.866 2.108,-1.866 0.898,-1.866 0,-1.089 0,0"
             inkscape:connector-curvature="0" />
        </g>
        <g
           transform="matrix(4.1927001,0,0,-4.1927001,415.12392,437.81967)"
           id="g4482">
          <path
             id="path4484"
             style="fill:#7d7e82;fill-opacity:1;fill-rule:nonzero;stroke:none"
             d="m 0,0 3.359,0 0,-0.846 -2.483,0 0,-0.41 1.906,0 0,-0.837 -1.906,0 0,-0.626 2.619,0 0,-0.837 L 0,-3.556 0,0 z"
             inkscape:connector-curvature="0" />
        </g>
        <g
           transform="matrix(4.1927001,0,0,-4.1927001,370.07084,452.67021)"
           id="g4486">
          <path
             id="path4488"
             style="fill:#7d7e82;fill-opacity:1;fill-rule:nonzero;stroke:none"
             d="m 0,0 0.96,0 -1.827,3.554 -0.54,0 L -3.219,0 -2.267,0 -1.991,0.604 -0.3,0.602 0,0 z m -1.134,2.213 0.431,-0.851 -0.874,0 0.443,0.851 z"
             inkscape:connector-curvature="0" />
        </g>
        <g
           transform="matrix(4.1927001,0,0,-4.1927001,517.57506,491.73319)"
           id="g4490">
          <path
             id="path4492"
             style="fill:#0d1b29;fill-opacity:1;fill-rule:nonzero;stroke:none"
             d="m 0,0 0,0.163 0.119,0 c 0.079,0 0.1,-0.025 0.1,-0.072 C 0.219,0.042 0.198,0.003 0.104,0 L 0,0 z m 0.083,-0.099 c 0.034,-0.002 0.067,0 0.09,-0.025 0.03,-0.03 0.03,-0.082 0.038,-0.135 0.004,-0.037 0.014,-0.077 0.02,-0.114 l 0.127,0 C 0.336,-0.316 0.33,-0.25 0.321,-0.189 0.312,-0.12 0.302,-0.082 0.214,-0.063 l 0,0.002 c 0.083,0.016 0.129,0.075 0.129,0.147 0,0.145 -0.121,0.176 -0.239,0.176 l -0.205,0 0,-0.635 0.101,0 0,0.274 0.083,0 z m 0.031,-0.505 c 0.299,0 0.539,0.242 0.539,0.541 0,0.296 -0.24,0.539 -0.539,0.539 -0.3,0 -0.541,-0.243 -0.541,-0.539 0,-0.299 0.241,-0.541 0.541,-0.541 m 0,0.094 c -0.246,0 -0.445,0.201 -0.445,0.447 0,0.245 0.199,0.443 0.445,0.443 0.246,0 0.443,-0.198 0.443,-0.443 0,-0.246 -0.197,-0.447 -0.443,-0.447"
             inkscape:connector-curvature="0" />
        </g>
        <g
           transform="matrix(4.1927001,0,0,-4.1927001,325.68524,314.33754)"
           id="g4494">
          <path
             id="path4496"
             style="fill:#0d80c8;fill-opacity:1;fill-rule:nonzero;stroke:none"
             d="m 0,0 5.872,9.857 6.8,-11.269 6.472,10.949 8.975,0 L 12.672,-17.136 5.922,-5.474 4.583,-7.794 0,0 z"
             inkscape:connector-curvature="0" />
        </g>
        <path
           id="path4498"
           style="fill:#1f4fa2;fill-opacity:1;fill-rule:nonzero;stroke:none"
           d="m 322.11266,386.15386 -65.14618,-111.80254 37.45759,0 46.55574,79.372 -18.86715,32.43054 z"
           inkscape:connector-curvature="0" />
        <g
           transform="matrix(4.1927001,0,0,-4.1927001,447.3901,277.88704)"
           id="g4500">
          <path
             id="path4502"
             style="fill:#0d80c8;fill-opacity:1;fill-rule:nonzero;stroke:none"
             d="m 0,0 0,0.283 0.208,0 C 0.346,0.283 0.383,0.241 0.383,0.157 0.383,0.072 0.346,0.005 0.184,0 L 0,0 z m 0.145,-0.173 c 0.063,-0.006 0.118,0 0.159,-0.045 0.052,-0.053 0.052,-0.14 0.065,-0.236 0.007,-0.064 0.024,-0.134 0.038,-0.196 l 0.219,0 C 0.59,-0.55 0.575,-0.436 0.56,-0.331 0.544,-0.21 0.526,-0.143 0.373,-0.113 l 0,0.005 c 0.148,0.03 0.225,0.13 0.225,0.258 0,0.25 -0.209,0.305 -0.412,0.305 l -0.358,0 0,-1.105 0.172,0 0,0.477 0.145,0 z M 0.2,-1.053 c 0.522,0 0.938,0.419 0.938,0.943 0,0.518 -0.416,0.938 -0.938,0.938 -0.523,0 -0.943,-0.42 -0.943,-0.938 0,-0.524 0.42,-0.943 0.943,-0.943 m 0,0.163 c -0.43,0 -0.778,0.348 -0.778,0.78 0,0.424 0.348,0.773 0.778,0.773 0.428,0 0.774,-0.349 0.774,-0.773 0,-0.432 -0.346,-0.78 -0.774,-0.78"
             inkscape:connector-curvature="0" />
        </g>
      </g>
    </g>
  </g>
  <g
     inkscape:groupmode="layer"
     id="layer2"
     inkscape:label="Layer"
     style="display:inline"
     transform="translate(-80.881482,-254.37505)" />
</svg>
